<?xml version="1.0" encoding="iso-8859-1"?>
<!DOCTYPE svg PUBLIC "-//W3C//DTD SVG 1.1//EN" "http://www.w3.org/Graphics/SVG/1.1/DTD/svg11.dtd">
<svg 
 version="1.1" xmlns="http://www.w3.org/2000/svg" xmlns:xlink="http://www.w3.org/1999/xlink" x="0px" y="0px" width="512px"
	 height="512px" viewBox="0 0 512 512" style="enable-background:new 0 0 512 512;" xml:space="preserve"
><g fill="#383838" id="7935ec95c421cee6d86eb22ecd105eee"><g></g><path style="display: inline;  clip-rule: evenodd;" d="M141.732,288.095c52.281,0,95.472-39.29,101.822-89.874
		h27.463c6.35,50.584,49.54,89.874,101.821,89.874c56.635,0,102.712-46.077,102.712-102.711
		c0-56.639-46.077-102.711-102.712-102.711c-52.281,0-95.472,39.29-101.821,89.874h-27.463
		c-6.35-50.584-49.541-89.874-101.822-89.874c-56.639,0-102.716,46.072-102.716,102.711
		C39.016,242.018,85.093,288.095,141.732,288.095z M372.838,108.347c42.479,0,77.033,34.557,77.033,77.037
		s-34.554,77.037-77.033,77.037s-77.037-34.557-77.037-77.037S330.358,108.347,372.838,108.347z M141.732,108.347
		c42.479,0,77.033,34.557,77.033,77.037s-34.553,77.037-77.033,77.037s-77.037-34.557-77.037-77.037S99.252,108.347,141.732,108.347
		z M511.5,327.268l-3.851,13.479c0,0-8.342,37.427-34.998,61.222c-34.978,31.222-72.854,26.727-72.854,26.727
		s-30.811,6.421-84.838-21.604c-20.614-10.691-35.644-27.633-45.748-37.206c-7.303-6.911-13.212-7.311-13.212-7.311
		s-5.909,0.399-13.211,7.311c-10.105,9.573-25.134,26.515-45.748,37.206c-54.023,28.024-84.838,21.604-84.838,21.604
		s-37.876,4.495-72.853-26.727c-26.661-23.795-34.999-61.222-34.999-61.222L0.5,327.268c0,0,32.528,34.616,65.21,29.193
		c30.994-5.14,39.818-24.881,94.432-54.094C203.328,279.271,256,284.896,256,284.896s52.672-5.626,95.858,17.471
		c54.614,29.213,63.438,48.954,94.428,54.094C478.972,361.884,511.5,327.268,511.5,327.268z"></path></g></svg>