<?xml version="1.0" encoding="iso-8859-1"?>
<!DOCTYPE svg PUBLIC "-//W3C//DTD SVG 1.1//EN" "http://www.w3.org/Graphics/SVG/1.1/DTD/svg11.dtd">
<svg 
 version="1.1" xmlns="http://www.w3.org/2000/svg" xmlns:xlink="http://www.w3.org/1999/xlink" x="0px" y="0px" width="512px"
	 height="512px" viewBox="0 0 512 512" style="enable-background:new 0 0 512 512;" xml:space="preserve"
><g fill="#383838" id="afcae5a789ccd549f9c6e2a2f80bbba3"><g></g><path style="display: inline;" d="M256,107.367l40.718,83.391l9.847,20.166l22.203,3.262l91.99,13.511l-66.87,65.879l-15.796,15.563
		l3.711,21.863l15.688,92.438l-81.526-43.318L256,369.513l-19.964,10.608l-81.526,43.318l15.689-92.438l3.71-21.863l-15.797-15.563
		l-66.869-65.879l91.989-13.511l22.204-3.262l9.847-20.166L256,107.367 M256,10.403L177.049,172.09L0.5,198.024l127.75,125.86
		L98.09,501.597L256,417.692l157.911,83.904l-30.16-177.712L511.5,198.024L334.951,172.09L256,10.403L256,10.403z M308.73,351.729
		l-10.072-59.339l42.658-42.03l-58.953-8.659L256,187.713l-26.368,53.988l-58.949,8.659l42.659,42.03l-10.072,59.339L256,323.709
		L308.73,351.729z"></path></g></svg>