<?xml version="1.0" encoding="iso-8859-1"?>
<!DOCTYPE svg PUBLIC "-//W3C//DTD SVG 1.1//EN" "http://www.w3.org/Graphics/SVG/1.1/DTD/svg11.dtd">
<svg 
 version="1.1" xmlns="http://www.w3.org/2000/svg" xmlns:xlink="http://www.w3.org/1999/xlink" x="0px" y="0px" width="512px"
	 height="512px" viewBox="0 0 512 512" style="enable-background:new 0 0 512 512;" xml:space="preserve"
><g fill="#d94789" id="afcae5a789ccd549f9c6e2a2f80dc2f7"><g></g><path style="display: inline; " d="M256,0.5C114.893,0.5,0.5,114.893,0.5,256S114.893,511.5,256,511.5
		S511.5,397.107,511.5,256S397.107,0.5,256,0.5z M275.195,366.65h-37.1v-34.849h37.1V366.65z M327.302,220.108
		c-1.015,4.445-2.645,8.778-4.898,13.008c-2.245,4.229-5.189,8.429-8.833,12.604c-3.634,4.175-8.084,8.408-13.323,12.692
		c-5.573,4.6-10.122,8.533-13.657,11.802c-3.534,3.269-6.337,6.583-8.425,9.955c-2.088,3.373-3.56,7.174-4.416,11.403
		c-0.857,4.233-1.348,9.714-1.447,16.459H239.38c0-7.386,0.399-13.811,1.206-19.271c0.803-5.46,2.059-10.358,3.77-14.696
		c1.713-4.333,3.884-8.213,6.504-11.64s5.805-6.849,9.556-10.276l10.28-9.157c3.635-3.319,6.854-6.346,9.631-9.074
		c2.786-2.728,5.09-5.406,6.912-8.03c1.813-2.624,3.185-5.406,4.092-8.351c0.906-2.944,1.364-6.288,1.364-10.034
		c0-5.14-0.857-9.852-2.57-14.135c-1.714-4.279-4.175-7.922-7.386-10.92c-3.21-2.999-7.069-5.327-11.561-6.986
		c-4.5-1.66-9.481-2.491-14.938-2.491c-11.137,0-19.913,3.161-26.338,9.478c-6.425,6.316-10.6,15.632-12.526,27.941h-34.208
		c0.749-10.06,3.078-19.138,6.986-27.217c3.905-8.084,9.099-14.909,15.578-20.477c6.479-5.568,13.998-9.852,22.564-12.846
		c8.563-2.998,17.88-4.5,27.943-4.5c10.596,0,20.335,1.447,29.227,4.337c8.891,2.89,16.542,6.958,22.972,12.206
		c6.42,5.248,11.419,11.619,15.012,19.112c3.585,7.494,5.381,15.79,5.381,24.893C328.832,210.93,328.325,215.667,327.302,220.108z"></path></g></svg>