<?xml version="1.0" encoding="iso-8859-1"?>
<!DOCTYPE svg PUBLIC "-//W3C//DTD SVG 1.1//EN" "http://www.w3.org/Graphics/SVG/1.1/DTD/svg11.dtd">
<svg 
 version="1.1" xmlns="http://www.w3.org/2000/svg" xmlns:xlink="http://www.w3.org/1999/xlink" x="0px" y="0px" width="512px"
	 height="512px" viewBox="0 0 512 512" style="enable-background:new 0 0 512 512;" xml:space="preserve"
><g fill="#383838" id="afcae5a789ccd549f9c6e2a2f819b416"><g></g><path style="display: inline;  clip-rule: evenodd;" d="M447.625,106.958h-11.303
		c-8.4-20.271-21.72-42.372-42.858-63.222c-35.925-35.437-103.93-41.866-131.268-43V0.51c0,0-0.532-0.01-1.539-0.01
		c-1.006,0-2.486,0.01-4.37,0.05c-1.884-0.04-3.364-0.05-4.371-0.05c-1.006,0-1.543,0.01-1.543,0.01l0.005,0.227
		c-27.339,1.133-95.348,7.563-131.272,43c-21.138,20.851-34.454,42.951-42.858,63.222H64.375c-11.711,0-21.292,9.581-21.292,21.292
		v42.583c0,10.976,8.45,19.975,19.146,21.073c-0.149,33.087,5.049,141.633,73.614,245.197
		c44.58,67.348,96.815,74.396,116.739,74.396c1.401,0,2.636-0.033,3.705-0.083c1.064,0.05,2.304,0.083,3.701,0.083
		c19.919,0,72.158-7.045,116.742-74.396c68.599-103.622,73.768-212.234,73.61-245.255c10.425-1.356,18.576-10.234,18.576-21.015
		V128.25C468.917,116.54,459.335,106.958,447.625,106.958z M134.055,58.894c31.451-31.021,97.659-36.073,117.205-36.884l4.316-0.179
		c0.087,0.002,0.174,0.004,0.266,0.006l0.445,0.008l0.444-0.008c0.092-0.002,0.18-0.004,0.267-0.006l4.316,0.179
		c19.545,0.811,85.749,5.866,117.195,36.884c16.086,15.865,27.072,32.445,34.596,48.064h-77.437
		C318.478,81.284,289.219,64.375,256,64.375s-62.478,16.909-79.669,42.583H99.465C106.991,91.334,117.979,74.757,134.055,58.894z
		 M330.521,162.316c0,41.157-33.363,74.521-74.521,74.521s-74.521-33.364-74.521-74.521c0-41.157,33.363-74.521,74.521-74.521
		S330.521,121.16,330.521,162.316z M358.974,425.352c-38.749,58.536-82.131,64.856-98.985,64.856c-1.011,0-1.909-0.024-2.683-0.058
		l-1.019-0.05l-1.019,0.05c-0.774,0.033-1.668,0.058-2.687,0.058c-16.851,0-60.236-6.32-98.986-64.86
		c-64.985-98.158-70.083-202.483-70.05-233.223h82.114C178.817,229.335,214.286,256,256,256s77.183-26.665,90.34-63.875h82.709
		C429.152,222.798,424.25,326.753,358.974,425.352z M287.938,160.188c0,17.638-14.297,31.938-31.938,31.938
		s-31.938-14.299-31.938-31.938c0-17.639,14.297-31.938,31.938-31.938S287.938,142.549,287.938,160.188z"></path></g></svg>