<?xml version="1.0" encoding="iso-8859-1"?>
<!DOCTYPE svg PUBLIC "-//W3C//DTD SVG 1.1//EN" "http://www.w3.org/Graphics/SVG/1.1/DTD/svg11.dtd">
<svg 
 version="1.1" xmlns="http://www.w3.org/2000/svg" xmlns:xlink="http://www.w3.org/1999/xlink" x="0px" y="0px" width="512px"
	 height="512px" viewBox="0 0 512 512" enable-background="new 0 0 512 512" xml:space="preserve"
><g fill="#383838" id="1b1c9b208ed950244c86edd4d2038c22"><g></g><path display="inline" d="M190.605,434.7c0,24.319-19.786,44.102-44.105,44.102c-24.319,0-44.103-19.782-44.103-44.102
		s19.784-44.105,44.103-44.105C170.819,390.595,190.605,410.381,190.605,434.7z M401.998,390.595
		c-24.319,0-44.102,19.786-44.102,44.105s19.782,44.102,44.102,44.102c24.318,0,44.104-19.782,44.104-44.102
		S426.316,390.595,401.998,390.595z M468.917,87.949H152.583c-5.171,0-10.111,0.981-14.707,2.688l-6.625-22.6
		c-2.079-7.096-5.628-13.356-10.111-18.444c-7.646-9.858-20.708-16.396-35.475-16.396H43.083C19.663,33.198,0.5,49.625,0.5,69.697
		c0,20.073,19.163,36.5,42.583,36.5h23.304l77.16,263.256c0.985-0.046,1.957-0.149,2.952-0.149
		c36.061,0,65.397,29.338,65.397,65.396h124.708c0-34.919,27.534-63.455,62.021-65.227c-6.491-15.258-21.653-26.023-39.211-26.023
		h-147.44l-10.698-36.5h231.141c23.421,0,42.584-19.162,42.584-42.583v-6.084c0-23.421-19.163-42.584-42.584-42.584H174.53
		L163.833,179.2h305.084c23.421,0,42.583-19.162,42.583-42.583v-6.084C511.5,107.112,492.338,87.949,468.917,87.949z"></path></g></svg>