<?xml version="1.0" encoding="iso-8859-1"?>
<!DOCTYPE svg PUBLIC "-//W3C//DTD SVG 1.1//EN" "http://www.w3.org/Graphics/SVG/1.1/DTD/svg11.dtd">
<svg 
 version="1.1" xmlns="http://www.w3.org/2000/svg" xmlns:xlink="http://www.w3.org/1999/xlink" x="0px" y="0px" width="512px"
	 height="512px" viewBox="0 0 512 512" enable-background="new 0 0 512 512" xml:space="preserve"
><g fill="#ffffff" id="b75708d097f2188dff6617b0f00edf18"><g></g><path d="M230.063,429.383l-8.979,80.807C96.875,495.543,0.5,389.969,0.5,261.818c0-55.472,18.122-106.652,48.704-148.097
		L20.081,84.602C3.053,67.576,8.702,51.47,32.633,48.81L144.62,36.365c23.931-2.66,41.338,14.748,38.675,38.678l-12.436,111.99
		c-2.663,23.93-18.77,29.58-35.792,12.555l-27.332-27.336c-16.382,25.971-25.928,56.647-25.928,89.566
		C81.808,347.947,146.642,419.178,230.063,429.383z M462.796,398.533c30.588-41.441,48.704-92.625,48.704-148.097
		c0-128.83-97.39-234.871-222.552-248.626l-8.979,80.81c84.367,9.314,150.223,81.005,150.223,167.816
		c0,32.921-9.547,63.595-25.922,89.566l-27.339-27.34c-17.022-17.021-33.129-11.373-35.792,12.559l-12.436,111.992
		c-2.663,23.932,14.744,41.338,38.675,38.676l111.987-12.447c23.931-2.658,29.58-18.764,12.552-35.793L462.796,398.533z"></path></g></svg>