<?xml version="1.0" encoding="iso-8859-1"?>
<!DOCTYPE svg PUBLIC "-//W3C//DTD SVG 1.1//EN" "http://www.w3.org/Graphics/SVG/1.1/DTD/svg11.dtd">
<svg 
 version="1.1" xmlns="http://www.w3.org/2000/svg" xmlns:xlink="http://www.w3.org/1999/xlink" x="0px" y="0px" width="512px"
	 height="512px" viewBox="0 0 512 512" style="enable-background:new 0 0 512 512;" xml:space="preserve"
><g fill="#ffffff" id="afcae5a789ccd549f9c6e2a2f80ec9cb"><g></g><path style="display: inline;" d="M307.1,466.366L102.697,345.434H0.5V166.58h102.197L307.1,45.634V466.366z M358.636,345.426
		h51.098c1.781-25.447,2.925-45.428,2.925-77.641c0-34.76-1.321-74.334-3.355-101.212h-51.099
		c2.034,26.878,3.349,66.452,3.349,101.212C361.553,299.998,360.416,319.979,358.636,345.426z M449.123,422.074h51.099
		c5.854-38.089,11.278-83.626,11.278-154.289c0-74.457-6.026-139.566-12.224-177.859h-51.099
		c6.198,38.293,12.223,103.402,12.223,177.859C460.4,338.448,454.971,383.985,449.123,422.074z"></path></g></svg>