<?xml version="1.0" encoding="iso-8859-1"?>
<!DOCTYPE svg PUBLIC "-//W3C//DTD SVG 1.1//EN" "http://www.w3.org/Graphics/SVG/1.1/DTD/svg11.dtd">
<svg 
 version="1.1" xmlns="http://www.w3.org/2000/svg" xmlns:xlink="http://www.w3.org/1999/xlink" x="0px" y="0px" width="512px"
	 height="512px" viewBox="0 0 512 512" style="enable-background:new 0 0 512 512;" xml:space="preserve"
><g fill="#ffffff" id="7935ec95c421cee6d86eb22ecd13f7cb"><g></g><path style="display: inline;" d="M177.385,138.077c0,10.855-11.731,19.653-26.203,19.653h-26.21
		c-14.472,0-26.202-8.798-26.202-19.653V20.153C98.77,9.298,110.5,0.5,124.972,0.5h26.21c14.472,0,26.203,8.798,26.203,19.653
		V138.077z M413.23,20.153C413.23,9.298,401.5,0.5,387.028,0.5h-26.21c-14.472,0-26.203,8.798-26.203,19.653v117.924
		c0,10.855,11.731,19.653,26.203,19.653h26.21c14.472,0,26.202-8.798,26.202-19.653V20.153z M491.846,60.241V511.5H20.154V60.241
		h58.961v77.836c0,22.041,20.142,39.308,45.856,39.308h26.21c25.715,0,45.856-17.267,45.856-39.308V60.241h117.923v77.836
		c0,22.041,20.143,39.308,45.857,39.308h26.21c25.715,0,45.856-17.267,45.856-39.308V60.241H491.846z M452.539,432.885V236.346
		H59.462v196.539v38.793h393.077V432.885z M207.599,385.746c23.803-21.197,35.707-41.718,35.707-61.572
		c0-14.871-4.883-26.671-14.652-35.407c-9.766-8.744-23.347-13.112-40.751-13.112c-18.583,0-35.27,4.782-50.059,14.355v32.982
		c13.362-11.632,27.365-17.443,41.994-17.443c16.848,0,25.27,7.831,25.27,23.493c0,7.032-1.996,13.741-5.992,20.106
		c-3.996,6.364-10.894,14.257-20.702,23.669l-48.759,46.616v29.189h111.989v-31.086h-69.042v-0.713L207.599,385.746z
		 M316.742,451.586c20.483,0,36.536-4.629,48.164-13.88c11.627-9.251,17.439-21.826,17.439-37.727
		c0-10.517-3.481-19.393-10.441-26.632c-6.96-7.24-16.453-11.608-28.471-13.105v-0.6c22.54-5.61,33.81-19.531,33.81-41.756
		c0-12.491-4.844-22.656-14.533-30.486c-9.688-7.831-23.23-11.746-40.632-11.746c-15.896,0-29.818,3.009-41.757,9.014v30.608
		c10.756-7.354,21.827-11.033,33.217-11.033c17.001,0,25.507,6.925,25.507,20.761c0,14.709-11.074,22.064-33.219,22.064h-14.12
		v28.712h15.306c11.547,0,20.624,2.059,27.228,6.174c6.603,4.106,9.903,9.965,9.903,17.549c0,7.355-2.667,13.091-8.007,17.206
		c-5.336,4.114-12.791,6.165-22.36,6.165c-15.185,0-28.472-4.146-39.864-12.452v32.627
		C284.905,448.738,299.185,451.586,316.742,451.586z"></path></g></svg>