<?xml version="1.0" encoding="iso-8859-1"?>
<!DOCTYPE svg PUBLIC "-//W3C//DTD SVG 1.1//EN" "http://www.w3.org/Graphics/SVG/1.1/DTD/svg11.dtd">
<svg 
 version="1.1" xmlns="http://www.w3.org/2000/svg" xmlns:xlink="http://www.w3.org/1999/xlink" x="0px" y="0px" width="512px"
	 height="512px" viewBox="0 0 512 512" style="enable-background:new 0 0 512 512;" xml:space="preserve"
><g fill="#383838" id="afcae5a789ccd549f9c6e2a2f80ef952"><g></g><path style="display: inline;" d="M510.613,308.935l0.887,0.295v127.75l-127.75,42.583V266.646l85.035,28.346
		c0.078-2.344,0.132-4.693,0.132-7.054c0-117.404-95.513-212.917-212.917-212.917c-117.404,0-212.917,95.513-212.917,212.917
		c0,2.362,0.053,4.711,0.13,7.054l85.037-28.346v212.917L0.5,436.979v-127.75l0.886-0.295C0.807,302.011,0.5,295.012,0.5,287.938
		c0-141.107,114.393-255.5,255.5-255.5c141.107,0,255.5,114.393,255.5,255.5C511.5,295.012,511.193,302.011,510.613,308.935z"></path></g></svg>