<?xml version="1.0" encoding="iso-8859-1"?>
<!DOCTYPE svg PUBLIC "-//W3C//DTD SVG 1.1//EN" "http://www.w3.org/Graphics/SVG/1.1/DTD/svg11.dtd">
<svg 
 version="1.1" xmlns="http://www.w3.org/2000/svg" xmlns:xlink="http://www.w3.org/1999/xlink" x="0px" y="0px" width="512px"
	 height="512px" viewBox="0 0 512 512" style="enable-background:new 0 0 512 512;" xml:space="preserve"
><g fill="#383838" id="afcae5a789ccd549f9c6e2a2f8099d11"><g></g><path style="display: inline;" d="M316.377,511.5c-49.349,0-87.924-18.548-103.182-49.615c-6.671-13.594-8.272-31.348-9.82-48.512
		c-0.614-6.83-1.519-16.844-2.869-23.781c-12.583,6.913-18.93,16.139-26.718,27.458c-9.626,14-21.614,31.426-46.479,42.314
		c-8.582,3.764-17.773,5.675-27.304,5.675c-39.62,0-74.456-32.358-85.244-63.639c-12.757-36.988-7.179-65.39,22.108-112.547
		c16.022-25.816,32.015-41.662,54.225-60.306l0.6-0.506c2.346-1.962,5.089-4.262,7.479-6.558c-3.744-0.643-7.764-1.194-10.832-1.615
		c-18.775-2.576-40.051-5.493-51.438-21.475c-4.092-5.747-8.405-15.443-5.703-29.025C45.076,99.553,150.543,68.551,188.286,68.551
		l1.379,0.002c13.148,0,26.602-0.952,35.929-7.873c5.182-3.843,10.184-10.684,15.476-17.928c6.928-9.47,14.774-20.204,25.944-28.177
		C280.09,5.233,293.553,0.5,307.025,0.5c40.08,0,71.007,42.941,76.565,104.016c4.721-2.065,9.776-4.527,13.317-6.25
		c4.997-2.431,9.719-4.729,14.257-6.651c5.007-2.116,10.705-3.188,16.941-3.188c23.65,0,63.257,17.907,71.485,45.97
		c10.348,35.271,6.086,85.438-72.971,124.124c-5.331,2.604-11.025,5.038-17.058,7.616c-10.565,4.516-32.34,13.816-35.644,20.018
		c0.193,0.735,0.938,2.825,3.604,6.328c2.714,0.953,7.696,2.221,11.518,3.192c22.568,5.738,69.526,17.672,69.526,66.218
		c0,42.881-9.84,80.624-27.003,103.559C410.628,493.427,365.415,511.5,316.377,511.5z M206.258,341.496
		c35.847,0,39.533,40.82,41.972,67.828c1.063,11.857,2.395,26.612,5.389,32.707c7.29,14.842,31.924,24.44,62.759,24.44
		c33.708,0,66.991-11.78,79.139-28.006c8.707-11.644,18.024-37.873,18.024-76.574c0-10.623-7.653-15.471-35.595-22.572
		c-13.541-3.444-25.238-6.42-32.974-15.505c-13.646-16.018-18.697-32.093-15.011-47.786c6.487-27.62,37.216-40.752,61.906-51.303
		c5.486-2.344,10.667-4.557,14.958-6.656c54.83-26.829,54.709-53.122,49.653-70.673c-2.709-4.932-18.431-13.939-28.372-13.939
		c-0.087,0-0.175,0-0.262,0.003c-3.266,1.422-7.145,3.309-11.237,5.299c-14.809,7.208-30.124,14.661-44.274,14.661
		c-19.215,0-32.45-13.435-32.935-33.426c-1.055-42.614-17.957-74.463-32.373-74.463c-3.841,0-8.63,1.966-13.841,5.688
		c-5.268,3.759-10.366,10.732-15.761,18.112c-6.719,9.187-14.334,19.6-25.001,27.514c-19.887,14.75-42.88,16.738-62.758,16.738
		l-1.214-0.002c-28.44,0-97.831,24.471-111.362,58.763c5.104,1.226,12.394,2.228,17.372,2.912
		c19.418,2.66,39.504,5.418,50.006,21.609c3.885,5.981,7.668,15.988,3.677,29.686c-4.978,17.099-18.001,28.02-27.512,35.994
		l-0.59,0.496c-19.162,16.088-31.996,28.753-44.915,49.563c-26.529,42.717-24.043,55.991-17.795,74.112
		c5.418,15.713,24.822,33.288,42.672,33.288c3.319,0,6.337-0.614,9.23-1.887c13.11-5.742,19.128-14.488,27.458-26.593
		c10.309-14.991,23.143-33.65,51.366-45.928C194.314,342.875,200.443,341.496,206.258,341.496z"></path></g></svg>