<?xml version="1.0" encoding="iso-8859-1"?>
<!DOCTYPE svg PUBLIC "-//W3C//DTD SVG 1.1//EN" "http://www.w3.org/Graphics/SVG/1.1/DTD/svg11.dtd">
<svg 
 version="1.1" xmlns="http://www.w3.org/2000/svg" xmlns:xlink="http://www.w3.org/1999/xlink" x="0px" y="0px" width="512px"
	 height="512px" viewBox="0 0 512 512" style="enable-background:new 0 0 512 512;" xml:space="preserve"
><g fill="#383838" id="afcae5a789ccd549f9c6e2a2f809653d"><g></g><path style="display: inline;" d="M256,0.5C114.895,0.5,0.5,114.892,0.5,256c0,141.105,114.395,255.5,255.5,255.5
		S511.5,397.105,511.5,256C511.5,114.892,397.105,0.5,256,0.5z M279.228,383.75c0,27.683,6.487,53.831,17.974,77.072
		c-13.333,2.694-27.083,4.224-41.201,4.224s-27.868-1.529-41.201-4.224c11.486-23.241,17.974-49.39,17.974-77.072
		c0-96.212-77.993-174.205-174.204-174.205c-2.132,0-4.24,0.086-6.352,0.159C73.344,116.654,156.649,46.955,256,46.955
		c99.351,0,182.656,69.7,203.783,162.75c-2.114-0.072-4.219-0.159-6.352-0.159C357.22,209.545,279.228,287.538,279.228,383.75z"></path></g></svg>