<?xml version="1.0" encoding="iso-8859-1"?>
<!DOCTYPE svg PUBLIC "-//W3C//DTD SVG 1.1//EN" "http://www.w3.org/Graphics/SVG/1.1/DTD/svg11.dtd">
<svg 
 version="1.1" xmlns="http://www.w3.org/2000/svg" xmlns:xlink="http://www.w3.org/1999/xlink" x="0px" y="0px" width="512px"
	 height="512px" viewBox="0 0 512 512" style="enable-background:new 0 0 512 512;" xml:space="preserve"
><g fill="#ffffff" id="afcae5a789ccd549f9c6e2a2f81beaa8"><g></g><path style="display: inline;  clip-rule: evenodd;" d="M391.497,483.379c0,0-50.39-5.705-76.847-19.309
		c-14.346-7.381-12.634-26.71-12.634-26.71s6.451-33.528-19.59-32.329c-31.122,1.435-30.686,43.408-30.686,43.408
		s-23.99,19.048-52.127,33.813c-31.727,16.65-68.031,29.247-68.031,29.247s0.216-37.827,6.17-75.094
		c5.533-34.646,16.841-68.924,16.841-68.924s18.824-3.483,34.895-11.166c12.996-6.219,23.904-16.955,23.904-16.955l16.193-33.234
		c0,0-21.775,3.344-43.176,12.278c-16.81,7.018-34.377,20.104-34.377,20.104l-31.53,57.95l20.022-166.294l30.258-10.961
		c0,0,18.236-28.341,88.583-31.085c58.746-2.296,84.408,25.124,84.408,25.124s42.16,44.686,31.383,98.717
		c-2.911,14.595-11.883,41.202-16.895,61.49c-3.821,15.471-4.262,27.269-4.262,27.269s1.175,27.175,10.276,47.233
		C373.909,469.188,391.497,483.379,391.497,483.379z M505.246,205.783C490.554,69.586,382.12,22.63,382.12,22.63
		s-92.873-42.137-203.918-10.125C58.709,46.951,5.457,145.345,5.457,145.345l122.715,72.435c0,0,54.337-103.953,210.046-60.577
		c127.89,35.632,75.432,188.405,75.432,188.405l28.974,55.39c0,0,42.69-48.393,58.297-119.894
		C505.939,258.105,508.154,232.717,505.246,205.783z"></path></g></svg>