<?xml version="1.0" encoding="iso-8859-1"?>
<!DOCTYPE svg PUBLIC "-//W3C//DTD SVG 1.1//EN" "http://www.w3.org/Graphics/SVG/1.1/DTD/svg11.dtd">
<svg 
 version="1.1" xmlns="http://www.w3.org/2000/svg" xmlns:xlink="http://www.w3.org/1999/xlink" x="0px" y="0px" width="512px"
	 height="512px" viewBox="0 0 512 512" style="enable-background:new 0 0 512 512;" xml:space="preserve"
><g fill="#383838" id="afcae5a789ccd549f9c6e2a2f8195a91"><g></g><path style="display: inline;" d="M359.797,96.313c-24.063,0-46.037,8.891-62.863,23.54L213.111,83.63
		c1.921-6.078,2.967-12.542,2.967-19.255c0-35.276-28.6-63.875-63.875-63.875c-35.276,0-63.875,28.599-63.875,63.875
		c0,35.274,28.599,63.875,63.875,63.875c14.991,0,28.751-5.204,39.646-13.852l81.975,35.425c-6.292,12.76-9.84,27.114-9.84,42.302
		c0,24.062,8.89,46.031,23.537,62.859l-54.043,54.039c-18.374-13.253-40.92-21.086-65.307-21.086
		c-61.734,0-111.781,50.047-111.781,111.781S106.438,511.5,168.172,511.5s111.781-50.047,111.781-111.781
		c0-21.946-6.35-42.399-17.276-59.67l59.697-59.696c11.498,4.88,24.146,7.585,37.423,7.585c52.917,0,95.813-42.896,95.813-95.813
		C455.609,139.209,412.714,96.313,359.797,96.313z M142.752,54.924c-10.689,10.689-25.137,13.575-32.261,6.45
		c-7.131-7.126-4.244-21.57,6.449-32.261c10.689-10.689,25.137-13.58,32.261-6.449C156.326,29.786,153.442,44.233,142.752,54.924z
		 M151.628,383.175c-18.708,18.709-43.986,23.765-56.458,11.292c-12.472-12.472-7.417-37.747,11.292-56.458
		c18.712-18.709,43.986-23.765,56.458-11.292C175.392,339.188,170.336,364.467,151.628,383.175z M345.618,177.946
		c-16.038,16.034-37.699,20.367-48.392,9.676c-10.693-10.688-6.356-32.355,9.678-48.393c16.033-16.031,37.701-20.367,48.391-9.674
		C365.984,140.239,361.652,161.908,345.618,177.946z"></path></g></svg>