<?xml version="1.0" encoding="iso-8859-1"?>
<!DOCTYPE svg PUBLIC "-//W3C//DTD SVG 1.1//EN" "http://www.w3.org/Graphics/SVG/1.1/DTD/svg11.dtd">
<svg 
 version="1.1" xmlns="http://www.w3.org/2000/svg" xmlns:xlink="http://www.w3.org/1999/xlink" x="0px" y="0px" width="512px"
	 height="512px" viewBox="0 0 512 512" style="enable-background:new 0 0 512 512;" xml:space="preserve"
><g fill="#383838" id="afcae5a789ccd549f9c6e2a2f818dd05"><g></g><path style="display: inline;" d="M511.5,256c0-25.85-40.546-48.786-103.119-63.118c34.112-54.383,46.563-99.268,28.282-117.549
		c-5.697-5.699-13.977-8.411-24.331-8.413v21.292h0.004c4.441,0,7.909,0.815,9.273,2.177c3.09,3.09,6.533,22.073-17.362,67.216
		c-5.252,9.92-11.373,20.202-18.21,30.713c-17.116-3.121-35.489-5.654-54.867-7.487c-1.839-19.377-4.367-37.751-7.485-54.861
		c38.3-24.947,69.93-37.753,88.643-37.758l0.005-21.292c-0.005,0-0.005,0-0.009,0c-22.852,0.004-55.782,13.229-93.205,36.703
		C304.788,41.045,281.85,0.5,256,0.5s-48.788,40.545-63.118,103.121c-37.427-23.477-70.354-36.701-93.209-36.699
		c-10.35,0-18.638,2.714-24.34,8.413c-18.276,18.279-5.826,63.164,28.287,117.547C41.046,207.214,0.5,230.15,0.5,256
		s40.546,48.788,103.119,63.118c-34.112,54.381-46.563,99.264-28.287,117.545c5.702,5.705,13.981,8.417,24.34,8.417
		c22.855,0,55.783-13.225,93.209-36.703C207.212,470.954,230.15,511.5,256,511.5s48.788-40.546,63.118-103.123
		c37.423,23.479,70.354,36.703,93.205,36.703c10.354,0,18.643-2.716,24.344-8.417c18.277-18.276,5.826-63.16-28.29-117.545
		C470.954,304.788,511.5,281.85,511.5,256z M372.867,207.59c-7.548,10.525-15.79,21.217-24.59,31.958
		c-4.624-5.273-9.397-10.563-14.292-15.853c-0.279-7.2-0.641-14.317-1.103-21.318C346.701,203.752,360.088,205.486,372.867,207.59z
		 M296.546,215.454c5.614,5.614,11.095,11.266,16.451,16.938c0.225,7.797,0.341,15.669,0.341,23.608s-0.116,15.811-0.341,23.612
		c-5.356,5.668-10.837,11.319-16.451,16.934c-5.673,5.672-11.319,11.145-16.938,16.451c-7.798,0.225-15.67,0.341-23.608,0.341
		s-15.811-0.116-23.608-0.341c-5.618-5.307-11.265-10.779-16.938-16.451c-5.614-5.614-11.095-11.262-16.451-16.934
		c-0.225-7.798-0.341-15.674-0.341-23.612s0.116-15.811,0.341-23.612c5.356-5.668,10.837-11.319,16.451-16.931
		c5.673-5.674,11.324-11.149,16.942-16.456c7.793-0.222,15.665-0.343,23.604-0.343c7.935,0,15.807,0.121,23.604,0.343
		C285.222,204.305,290.869,209.78,296.546,215.454z M223.663,178.015c-7.186,0.281-14.293,0.64-21.283,1.1
		c1.372-13.813,3.106-27.188,5.211-39.961c10.313,7.396,21.005,15.594,31.958,24.56
		C234.259,168.347,228.966,173.112,223.663,178.015z M178.015,223.696c-4.894,5.29-9.668,10.58-14.296,15.853
		c-8.8-10.742-17.038-21.433-24.585-31.958c12.779-2.104,26.166-3.838,39.984-5.212
		C178.655,209.379,178.294,216.496,178.015,223.696z M178.015,288.304c0.279,7.202,0.641,14.317,1.103,21.316
		c-13.819-1.372-27.205-3.106-39.984-5.215c7.548-10.521,15.786-21.213,24.585-31.954
		C168.347,277.725,173.121,283.014,178.015,288.304z M223.659,333.98c5.302,4.907,10.6,9.673,15.89,14.306
		c-10.953,8.966-21.646,17.166-31.958,24.561c-2.104-12.775-3.839-26.149-5.211-39.964
		C209.366,333.34,216.474,333.702,223.659,333.98z M288.337,333.98c7.189-0.278,14.293-0.641,21.283-1.098
		c-1.372,13.814-3.106,27.192-5.211,39.964c-10.313-7.395-21.005-15.595-31.958-24.561
		C277.741,343.653,283.039,338.888,288.337,333.98z M333.985,288.304c4.895-5.29,9.668-10.579,14.292-15.853
		c8.8,10.745,17.042,21.433,24.586,31.954c-12.775,2.108-26.162,3.843-39.98,5.215C333.345,302.617,333.706,295.506,333.985,288.304
		z M309.62,179.115c-6.99-0.46-14.098-0.821-21.287-1.1c-5.299-4.903-10.597-9.668-15.882-14.301
		c10.953-8.964,21.646-17.164,31.958-24.558C306.514,151.927,308.248,165.305,309.62,179.115z M220.748,81.598
		C235.772,32.778,251.629,21.792,256,21.792s20.228,10.987,35.252,59.806c3.302,10.727,6.242,22.325,8.837,34.59
		c-14.306,9.891-29.093,21.115-44.089,33.52c-14.996-12.405-29.783-23.629-44.089-33.522
		C214.506,103.922,217.446,92.324,220.748,81.598z M107.752,157.605C83.854,112.462,87.297,93.48,90.387,90.391
		c1.364-1.364,4.836-2.177,9.29-2.177c18.709,0,50.339,12.806,88.639,37.753c-3.118,17.112-5.646,35.487-7.485,54.864
		c-19.378,1.833-37.755,4.366-54.867,7.487C119.126,177.807,113.005,167.525,107.752,157.605z M81.596,291.252
		C32.778,276.227,21.792,260.37,21.792,256c0-4.371,10.987-20.227,59.808-35.252c10.725-3.302,22.323-6.244,34.591-8.839
		c9.897,14.308,21.1,29.091,33.505,44.091c-12.405,15-23.608,29.783-33.505,44.089C103.923,297.494,92.325,294.554,81.596,291.252z
		 M99.672,423.788c-4.449,0-7.922-0.814-9.282-2.179c-3.094-3.09-6.537-22.073,17.362-67.215c5.252-9.918,11.374-20.202,18.21-30.71
		c17.116,3.118,35.489,5.646,54.867,7.485c1.839,19.378,4.367,37.751,7.485,54.863C150.016,410.98,118.386,423.788,99.672,423.788z
		 M291.252,430.4c-15.024,48.821-30.881,59.808-35.252,59.808s-20.228-10.986-35.252-59.808
		c-3.302-10.721-6.242-22.323-8.837-34.587c14.306-9.893,29.093-21.112,44.089-33.518c14.996,12.405,29.783,23.625,44.089,33.522
		C297.494,408.077,294.554,419.68,291.252,430.4z M404.247,354.395c23.899,45.142,20.456,64.125,17.366,67.215
		c-1.364,1.364-4.836,2.179-9.29,2.179c-18.709,0-50.339-12.808-88.639-37.755c3.118-17.112,5.646-35.485,7.485-54.863
		c19.378-1.839,37.751-4.367,54.863-7.485C392.874,334.192,398.995,344.477,404.247,354.395z M430.4,291.252
		c-10.725,3.302-22.327,6.242-34.595,8.837C385.912,285.783,374.709,271,362.301,256c12.408-15,23.611-29.783,33.509-44.091
		c12.264,2.595,23.866,5.537,34.591,8.839c48.821,15.025,59.808,30.881,59.808,35.252C490.208,260.37,479.222,276.227,430.4,291.252
		z M412.332,66.92L412.332,66.92L412.332,66.92L412.332,66.92z M287.938,256c0,17.641-14.297,31.938-31.938,31.938
		S224.063,273.641,224.063,256s14.297-31.938,31.938-31.938S287.938,238.359,287.938,256z"></path></g></svg>