<?xml version="1.0" encoding="iso-8859-1"?>
<!DOCTYPE svg PUBLIC "-//W3C//DTD SVG 1.1//EN" "http://www.w3.org/Graphics/SVG/1.1/DTD/svg11.dtd">
<svg 
 version="1.1" xmlns="http://www.w3.org/2000/svg" xmlns:xlink="http://www.w3.org/1999/xlink" x="0px" y="0px" width="512px"
	 height="512px" viewBox="0 0 512 512" style="enable-background:new 0 0 512 512;" xml:space="preserve"
><g fill="#383838" id="afcae5a789ccd549f9c6e2a2f809039b"><g></g><path style="display: inline;  clip-rule: evenodd;" d="M37.479,422.935l14.91-89.478
		c2.009-12.051,13.651-21.914,25.871-21.914h87.264v13.4c0.326,10.913,6.336,31.92,26.826,41.44
		c23.076,10.71,59.163,11.725,63.207,11.808L256,378.2l0.442-0.009c4.045-0.083,40.131-1.098,63.207-11.812
		c20.49-9.517,26.5-30.523,26.826-41.437l0.004-13.4h87.26c12.22,0,23.862,9.863,25.871,21.914l14.91,89.478
		c2.009,12.05-6.345,21.913-18.563,21.913H56.043C43.823,444.848,35.471,434.984,37.479,422.935z M203.398,246.197
		c3.823,25.748-15.665,50.05-15.665,50.05v28.037c0,0,0.464,15.673,13.973,21.948c19.501,9.052,54.294,9.746,54.294,9.746
		s34.793-0.694,54.294-9.746c13.508-6.275,13.973-21.948,13.973-21.948v-28.037c0,0-19.488-24.302-15.665-50.05
		c5.259-35.396,33.344-59.054,33.344-59.054s42.187-70.929-1.641-146.045C314.03-3.939,256,0.63,256,0.63
		s-58.03-4.569-84.305,40.469c-43.827,75.116-1.641,146.045-1.641,146.045S198.139,210.801,203.398,246.197z M475.952,467.065
		H36.048c-13.443,0-24.439,9.998-24.439,22.217c0,12.22,10.996,22.218,24.439,22.218h439.904c13.443,0,24.439-9.998,24.439-22.218
		C500.392,477.063,489.396,467.065,475.952,467.065z"></path></g></svg>