<?xml version="1.0" encoding="iso-8859-1"?>
<!DOCTYPE svg PUBLIC "-//W3C//DTD SVG 1.1//EN" "http://www.w3.org/Graphics/SVG/1.1/DTD/svg11.dtd">
<svg  version="1.1" xmlns="http://www.w3.org/2000/svg" xmlns:xlink="http://www.w3.org/1999/xlink" x="0px" y="0px" width="512px"
	 height="512px" viewBox="0 0 512 512" enable-background="new 0 0 512 512" xml:space="preserve"><g fill="#383838" id="b75708d097f2188dff6617b0f00c7e8b"><path d="M493.403,295.37L344.316,448.944c-17.213,17.728-51.299,29.302-70.367,25.72l-116.229-16.986v-23.51l107.246,15.956
	c19.063,5.662,53.15-5.911,70.362-23.644l149.087-153.574c4.105-4.23,6.862-8.439,8.392-12.452
	C506.104,267.355,507.102,281.257,493.403,295.37z M494.876,165.889c12.09-13.544,10.718-26.653-2.068-33.29
	c-1.529,4.012-4.286,8.222-8.392,12.451L342.005,291.748l-15.546,14.424c-18.323,13.265-45.307,20.906-61.492,16.098L49.722,290.247
	c-12.029-3.421-18.014,2.459-18.516-32.638c-0.294-20.573,5.083-34.518,8.881-43.058l103.431,18.207l125.046,18.335
	c24.453,3.582,58.539-7.992,75.752-25.72L493.403,71.799c17.208-17.732,11.292-35.166-13.16-38.751L262.709,1.15
	c-24.452-3.582-58.539,7.993-75.751,25.72L37.874,180.445c-1.48,1.521-2.725,3.038-3.867,4.556
	c-8.898,10.922-25.265,27.397-25.265,72.608c0,37.62,14.627,49.83,26.305,53.935c-0.348,0.438-0.71,0.873-1.04,1.312
	c-8.898,10.923-25.265,27.398-25.265,72.608c0,55.517,31.857,55.722,39.081,56.156l20.605,3.011v56.833l33.14-13.889l35.548,23.925
	v-87.551c1.477-18.456-5.151-34.336,13.731-34.336v-0.137l-82.419-15.056v46.462l-18.706-2.781
	c-11.277-2.547-18.014,2.459-18.516-32.638c-0.294-20.572,5.083-34.518,8.881-43.057l103.431,18.206l125.046,18.335
	c24.453,3.582,58.539-7.992,75.752-25.72l149.087-153.575C506.365,186.296,506.196,173.117,494.876,165.889z"/></g></svg>