<?xml version="1.0" encoding="iso-8859-1"?>
<!DOCTYPE svg PUBLIC "-//W3C//DTD SVG 1.1//EN" "http://www.w3.org/Graphics/SVG/1.1/DTD/svg11.dtd">
<svg 
 version="1.1" xmlns="http://www.w3.org/2000/svg" xmlns:xlink="http://www.w3.org/1999/xlink" x="0px" y="0px" width="512px"
	 height="512px" viewBox="0 0 512 512" enable-background="new 0 0 512 512" xml:space="preserve"
><g fill="#ffffff" id="1b1c9b208ed950244c86edd4d202f285"><g></g><path display="inline" d="M383.75,0.5h-255.5C57.809,0.5,0.5,57.809,0.5,128.25v255.5c0,70.441,57.309,127.75,127.75,127.75h255.5
		c70.441,0,127.75-57.309,127.75-127.75v-255.5C511.5,57.809,454.191,0.5,383.75,0.5z M383.75,447.625h-255.5
		c-35.131,0-63.875-28.744-63.875-63.875V277.292h42.583v-42.583H64.375V128.25c0-35.131,28.744-63.875,63.875-63.875h106.458
		v42.583h42.583V64.375H383.75c35.131,0,63.875,28.744,63.875,63.875v106.458h-42.583v42.583h42.583V383.75
		C447.625,418.881,418.881,447.625,383.75,447.625z M256,264.517h63.875V307.1H256h-42.583v-42.583V158.058H256V264.517z"></path></g></svg>