<?xml version="1.0" encoding="iso-8859-1"?>
<!DOCTYPE svg PUBLIC "-//W3C//DTD SVG 1.1//EN" "http://www.w3.org/Graphics/SVG/1.1/DTD/svg11.dtd">
<svg 
 version="1.1" xmlns="http://www.w3.org/2000/svg" xmlns:xlink="http://www.w3.org/1999/xlink" x="0px" y="0px" width="512px"
	 height="512px" viewBox="0 0 512 512" style="enable-background:new 0 0 512 512;" xml:space="preserve"
><g fill="#383838" id="afcae5a789ccd549f9c6e2a2f80b9b0d"><g></g><path style="display: inline;" d="M344.104,247.19H273.62V141.465h70.483V247.19z M344.104,0.5H273.62v105.724h70.483V0.5z
		 M344.104,282.431H273.62v88.104h70.483V282.431z M344.104,405.776H273.62V511.5h70.483V405.776z M467.448,141.465h-88.104V247.19
		h88.104V141.465z M467.448,0.5h-88.104v105.724h88.104V0.5z M467.448,282.431h-88.104v88.104h88.104V282.431z M467.448,405.776
		h-88.104V511.5h88.104V405.776z M167.896,247.19h70.484V141.465h-70.484V247.19z M167.896,106.224h70.484V0.5h-70.484V106.224z
		 M167.896,370.534h70.484v-88.104h-70.484V370.534z M167.896,511.5h70.484V405.776h-70.484V511.5z M44.552,247.19h88.104V141.465
		H44.552V247.19z M44.552,106.224h88.104V0.5H44.552V106.224z M44.552,370.534h88.104v-88.104H44.552V370.534z M44.552,511.5h88.104
		V405.776H44.552V511.5z"></path></g></svg>