<?xml version="1.0" encoding="iso-8859-1"?>
<!DOCTYPE svg PUBLIC "-//W3C//DTD SVG 1.1//EN" "http://www.w3.org/Graphics/SVG/1.1/DTD/svg11.dtd">
<svg 
 version="1.1" xmlns="http://www.w3.org/2000/svg" xmlns:xlink="http://www.w3.org/1999/xlink" x="0px" y="0px" width="512px"
	 height="512px" viewBox="0 0 512 512" style="enable-background:new 0 0 512 512;" xml:space="preserve"
><g fill="#383838" id="afcae5a789ccd549f9c6e2a2f815c920"><g></g><path style="display: inline;" d="M414.586,281.97v-87.642H308.862v-35.241h-35.241v-55.562
		c20.525-7.336,35.241-26.894,35.241-49.942c0-29.319-23.764-53.083-53.083-53.083c-29.314,0-53.082,23.764-53.082,53.083
		c0,23.213,14.926,42.892,35.682,50.102v55.402h-35.702v35.241H97.414v87.642H44.552v123.806h52.862V511.5h317.172V405.775h52.862
		V281.97H414.586z M132.655,300.052c0-29.194,23.667-52.862,52.862-52.862c29.195,0,52.862,23.668,52.862,52.862
		s-23.667,52.862-52.862,52.862C156.323,352.914,132.655,329.246,132.655,300.052z M361.725,458.638H150.276v-52.862h211.449
		V458.638z M326.482,352.914c-29.194,0-52.861-23.668-52.861-52.862s23.667-52.862,52.861-52.862
		c29.195,0,52.862,23.668,52.862,52.862S355.678,352.914,326.482,352.914z"></path></g></svg>