<?xml version="1.0" encoding="iso-8859-1"?>
<!DOCTYPE svg PUBLIC "-//W3C//DTD SVG 1.1//EN" "http://www.w3.org/Graphics/SVG/1.1/DTD/svg11.dtd">
<svg 
 version="1.1" xmlns="http://www.w3.org/2000/svg" xmlns:xlink="http://www.w3.org/1999/xlink" x="0px" y="0px" width="512px"
	 height="512px" viewBox="0 0 512 512" style="enable-background:new 0 0 512 512;" xml:space="preserve"
><g fill="#383838" id="afcae5a789ccd549f9c6e2a2f809f44c"><g></g><path d="M326.811,344.236H141.857l-32.412,78.845c-7.986,19.399-11.977,33.895-11.977,43.473c0,7.613,3.462,14.31,10.391,20.077
		c6.926,5.771,21.897,9.52,44.919,11.237V511.5H2.35v-13.632c19.959-3.684,32.879-8.477,38.753-14.367
		c11.977-11.791,25.241-35.735,39.807-71.843L248.953,0.5h12.332l166.281,415.58c13.388,33.402,25.542,55.076,36.461,65.026
		c10.92,9.949,26.129,15.535,45.624,16.762V511.5H321.171v-13.632c19.023-0.979,31.884-4.294,38.58-9.946
		c6.692-5.651,10.04-12.529,10.04-20.634c0-10.804-4.702-27.871-14.09-51.208L326.811,344.236z M316.948,316.973l-81.029-201.892
		l-83.141,201.892H316.948z"></path></g></svg>