<?xml version="1.0" encoding="iso-8859-1"?>
<!DOCTYPE svg PUBLIC "-//W3C//DTD SVG 1.1//EN" "http://www.w3.org/Graphics/SVG/1.1/DTD/svg11.dtd">
<svg 
 version="1.1" xmlns="http://www.w3.org/2000/svg" xmlns:xlink="http://www.w3.org/1999/xlink" x="0px" y="0px" width="512px"
	 height="512px" viewBox="0 0 512 512" style="enable-background:new 0 0 512 512;" xml:space="preserve"
><g fill="#383838" id="afcae5a789ccd549f9c6e2a2f8129421"><g></g><path style="display: inline;  clip-rule: evenodd;" d="M339.823,293.443l-14.188-14.188
		c0,0,69.659-57.929,111.606-120.839C487.48,83.072,511.5,0.5,511.5,0.5s-82.576,24.02-157.92,74.25
		c-62.906,41.951-120.839,111.606-120.839,111.606l-14.188-14.189l-79.923,1.709L0.5,312.007l124.074,0.591l50.227-50.227
		l-28.295,72.158l15.478,15.482l15.486,15.482l72.159-28.299l-50.227,50.23l0.591,124.074l138.13-138.13L339.823,293.443z
		 M176.589,329.955c0,0,2.969-37.119,26.972-75.66c9.436-15.141,21.021-30.661,32.541-44.896l30.523,30.52L176.589,329.955z
		 M276.464,230.08l-31.459-31.459c22.498-26.706,42.45-46.617,42.45-46.617s51.981-47.191,101.726-79.981
		c48.639-32.054,95.061-49.719,95.061-49.719L276.464,230.08z M135.419,349.264c-14.675,7.547-31.368,18.56-46.447,33.646
		c-36.429,36.425-49.333,82.571-45.881,86.015c3.389,3.394,49.59-9.444,86.011-45.877c15.091-15.079,26.095-31.779,33.634-46.472
		L135.419,349.264z M126.3,404.547c-17.096,17.104-38.791,23.13-40.379,21.541c-1.622-1.617,4.433-23.283,21.541-40.388
		c7.078-7.082,14.913-12.251,21.808-15.794l12.825,12.82C138.551,389.626,133.386,397.469,126.3,404.547z"></path></g></svg>