<?xml version="1.0" encoding="iso-8859-1"?>
<!DOCTYPE svg PUBLIC "-//W3C//DTD SVG 1.1//EN" "http://www.w3.org/Graphics/SVG/1.1/DTD/svg11.dtd">
<svg 
 version="1.1" xmlns="http://www.w3.org/2000/svg" xmlns:xlink="http://www.w3.org/1999/xlink" x="0px" y="0px" width="512px"
	 height="512px" viewBox="0 0 512 512" enable-background="new 0 0 512 512" xml:space="preserve"
><g fill="#383838" id="1b1c9b208ed950244c86edd4d20347c4"><g></g><path display="inline" d="M452.538,59.461v19.654c0,10.81-8.844,19.654-19.653,19.654H79.115c-10.81,0-19.653-8.844-19.653-19.654
		V59.461c0-10.81,8.844-19.654,19.653-19.654h78.616c0-21.619,17.688-39.308,39.308-39.308h117.923
		c21.619,0,39.308,17.688,39.308,39.308h78.615C443.694,39.808,452.538,48.652,452.538,59.461z M432.885,177.385v275.153
		c0,32.43-26.533,58.962-58.962,58.962H138.077c-32.429,0-58.962-26.532-58.962-58.962V177.385
		c0-32.429,26.533-58.962,58.962-58.962h235.846C406.352,118.423,432.885,144.956,432.885,177.385z M216.692,364.004h-27.978
		c-7.693,0-10.841-5.455-6.992-12.114l15.402-26.679l10.1,5.831l-22.356-45.216l-50.332,3.248l9.779,5.646l-21.593,35.987
		c-3.956,6.603-3.956,17.396,0,23.995l31.323,52.201c3.956,6.599,13.491,11.996,21.184,11.996h41.463V364.004z M262.994,251.025
		l12.426,21.512l-9.95,5.75l50.336,3.247l22.353-45.215l-10.549,6.088l-20.025-33.377c-3.958-6.599-13.493-11.992-21.186-11.992
		h-60.798c-7.693,0-17.229,5.393-21.184,11.992l-20.128,33.542l52.193,30.142l12.523-21.689
		C252.853,244.361,259.147,244.361,262.994,251.025z M377.95,330.708l-21.646-36.076l-52.813,30.486l15.459,26.771
		c3.85,6.659,0.698,12.114-6.994,12.114h-27.98v-15.047L256,390.921l27.976,41.964V418.9h41.466c7.692,0,17.228-5.397,21.186-11.996
		l31.323-52.201C381.907,348.104,381.907,337.311,377.95,330.708z"></path></g></svg>