<?xml version="1.0" encoding="iso-8859-1"?>
<!DOCTYPE svg PUBLIC "-//W3C//DTD SVG 1.1//EN" "http://www.w3.org/Graphics/SVG/1.1/DTD/svg11.dtd">
<svg 
 version="1.1" xmlns="http://www.w3.org/2000/svg" xmlns:xlink="http://www.w3.org/1999/xlink" x="0px" y="0px" width="512px"
	 height="512px" viewBox="0 0 512 512" style="enable-background:new 0 0 512 512;" xml:space="preserve"
><g fill="#383838" id="afcae5a789ccd549f9c6e2a2f8191fac"><g></g><path style="display: inline;" d="M316.917,331.525H24.748c-10.226,0-17.99-3.876-21.861-10.92
		c-4.042-7.36-2.911-17.017,3.111-26.498l0.187-0.283l113.52-161.818V52.715c-8.504-3.015-14.609-11.139-14.609-20.661
		c0-12.083,9.827-21.912,21.911-21.912h87.653c12.081,0,21.911,9.829,21.911,21.912c0,9.522-6.104,17.646-14.608,20.661v79.291
		l113.706,162.102c6.021,9.481,7.153,19.138,3.11,26.498C334.907,327.649,327.144,331.525,316.917,331.525z M18.244,302.066
		c-2.919,4.658-3.9,9.054-2.557,11.503c1.172,2.129,4.474,3.352,9.061,3.352h292.169c4.587,0,7.889-1.223,9.062-3.352
		c1.344-2.449,0.362-6.845-2.558-11.503L207.353,136.619V39.357h7.307c4.025,0,7.303-3.276,7.303-7.304
		c0-4.028-3.277-7.305-7.303-7.305h-87.653c-4.025,0-7.302,3.276-7.302,7.305c0,4.027,3.277,7.304,7.302,7.304h7.307v97.262
		L18.244,302.066z M235.535,200.339c-20.452,5.622-42.995,8.755-66.69,8.755c-21.009,0-41.099-2.468-59.642-6.942l-60.989,86.933
		c-4.833,6.895-1.9,12.533,6.516,12.533h236.546c8.416,0,11.353-5.639,6.516-12.533L235.535,200.339z M511.499,101.241
		c0-13.904-11.312-25.216-25.213-25.216H385.421c-13.906,0-25.218,11.312-25.218,25.216c0,10.959,7.028,20.308,16.813,23.776
		v312.787c-0.158,1.743,0,4.159,0,5.943c0,32.091,26.344,58.11,58.839,58.11c32.49,0,58.835-26.02,58.835-58.11
		c0-1.784,0.158-4.2,0-5.943V125.018C504.471,121.549,511.499,112.2,511.499,101.241z M486.286,109.647h-8.404v328.811
		c0.232,1.738-0.066,3.56-0.066,5.36c0,22.331-19.229,40.429-41.96,40.429c-22.734,0-41.964-18.098-41.964-40.429
		c0-1.801-0.295-3.622-0.063-5.36V109.647h-8.408c-4.633,0-8.404-3.774-8.404-8.406c0-4.635,3.771-8.402,8.404-8.402h100.865
		c4.633,0,8.404,3.768,8.404,8.402C494.69,105.873,490.919,109.647,486.286,109.647z M460.781,440.986
		c0-0.981,0.042-1.971,0.104-2.957c0.013-0.22,0.029-0.437,0.037-0.652l-0.083-0.607V277.02h-49.978v159.759l-0.083,0.606
		c0.009,0.217,0.025,0.433,0.038,0.649c0.054,0.985,0.104,1.971,0.104,2.952c0,12.684,11.419,23.4,24.931,23.4
		C449.362,464.387,460.781,453.67,460.781,440.986z"></path></g></svg>