<?xml version="1.0" encoding="iso-8859-1"?>
<!DOCTYPE svg PUBLIC "-//W3C//DTD SVG 1.1//EN" "http://www.w3.org/Graphics/SVG/1.1/DTD/svg11.dtd">
<svg 
 version="1.1" xmlns="http://www.w3.org/2000/svg" xmlns:xlink="http://www.w3.org/1999/xlink" x="0px" y="0px" width="512px"
	 height="512px" viewBox="0 0 512 512" style="enable-background:new 0 0 512 512;" xml:space="preserve"
><g fill="#ffffff" id="afcae5a789ccd549f9c6e2a2f811d045"><g></g><path style="display: inline;" d="M256,43.083c117.403,0,212.916,95.513,212.916,212.917c0,117.403-95.513,212.916-212.916,212.916
		c-117.404,0-212.917-95.513-212.917-212.916C43.083,138.596,138.596,43.083,256,43.083 M256,0.5C114.893,0.5,0.5,114.893,0.5,256
		S114.893,511.5,256,511.5S511.5,397.107,511.5,256S397.107,0.5,256,0.5L256,0.5z M256,128.25
		c70.441,0,127.751,57.309,127.751,127.75S326.441,383.751,256,383.751S128.25,326.441,128.25,256S185.559,128.25,256,128.25
		 M256,85.667c-94.075,0-170.333,76.259-170.333,170.333c0,94.074,76.259,170.334,170.333,170.334
		c94.074,0,170.334-76.26,170.334-170.334C426.334,161.925,350.074,85.667,256,85.667L256,85.667z M256,170.833
		c-47.037,0-85.167,38.129-85.167,85.167s38.13,85.167,85.167,85.167s85.167-38.13,85.167-85.167S303.037,170.833,256,170.833z"></path></g></svg>