<?xml version="1.0" encoding="iso-8859-1"?>
<!DOCTYPE svg PUBLIC "-//W3C//DTD SVG 1.1//EN" "http://www.w3.org/Graphics/SVG/1.1/DTD/svg11.dtd">
<svg 
 version="1.1" xmlns="http://www.w3.org/2000/svg" xmlns:xlink="http://www.w3.org/1999/xlink" x="0px" y="0px" width="512px"
	 height="512px" viewBox="0 0 512 512" style="enable-background:new 0 0 512 512;" xml:space="preserve"
><g fill="#383838" id="afcae5a789ccd549f9c6e2a2f8196620"><g></g><path style="display: inline;" d="M402,365.5c-9.592,0-18.731,1.899-27.122,5.265l-38.539-53.164
		c18.022-18.146,29.161-43.133,29.161-70.726c0-55.436-44.94-100.375-100.375-100.375c-12.426,0-24.32,2.274-35.303,6.402
		l-28.145-58.755c10.023-9.923,16.239-23.682,16.239-38.897c0-30.237-24.516-54.75-54.75-54.75c-30.237,0-54.75,24.513-54.75,54.75
		c0,29.266,22.987,53.105,51.884,54.605l32.372,67.589c-17.284,18.031-27.924,42.481-27.924,69.43
		c0,28.598,11.98,54.383,31.175,72.665l-53.588,53.588c-9.756-4.837-20.709-7.628-32.337-7.628c-40.314,0-73,32.686-73,73
		s32.686,73,73,73s73-32.686,73-73c0-12.614-3.201-24.48-8.836-34.832l60.977-60.977c9.471,2.962,19.541,4.559,29.984,4.559
		c11.92,0,23.351-2.089,33.959-5.902l41.679,57.498C333.349,410.27,329,423.868,329,438.5c0,40.314,32.687,73,73,73
		c40.314,0,73-32.686,73-73S442.314,365.5,402,365.5z M99.2,427.699c-12.219,12.22-28.729,15.513-36.871,7.372
		c-8.148-8.142-4.848-24.652,7.371-36.871c12.219-12.219,28.729-15.52,36.871-7.371C114.712,398.971,111.418,415.48,99.2,427.699z
		 M127.416,52.676c-6.113-6.106-3.639-18.487,5.525-27.651c9.167-9.163,21.547-11.64,27.653-5.529
		c6.109,6.104,3.636,18.489-5.525,27.653C145.901,56.312,133.518,58.786,127.416,52.676z M250.269,232.019
		c-16.796,16.799-39.494,21.337-50.697,10.141c-11.199-11.199-6.658-33.895,10.141-50.697c16.803-16.799,39.498-21.34,50.697-10.141
		C271.605,192.521,267.071,215.221,250.269,232.019z M391.2,427.699c-12.22,12.22-28.729,15.513-36.871,7.372
		c-8.148-8.142-4.848-24.652,7.371-36.871s28.729-15.52,36.871-7.371C406.712,398.971,403.419,415.48,391.2,427.699z"></path></g></svg>