<?xml version="1.0" encoding="iso-8859-1"?>
<!DOCTYPE svg PUBLIC "-//W3C//DTD SVG 1.1//EN" "http://www.w3.org/Graphics/SVG/1.1/DTD/svg11.dtd">
<svg 
 version="1.1" xmlns="http://www.w3.org/2000/svg" xmlns:xlink="http://www.w3.org/1999/xlink" x="0px" y="0px" width="512px"
	 height="512px" viewBox="0 0 512 512" style="enable-background:new 0 0 512 512;" xml:space="preserve"
><g fill="#383838" id="afcae5a789ccd549f9c6e2a2f8199131"><g></g><path style="display: inline;  clip-rule: evenodd;" d="M316.287,101.47C262.117,36.05,262.249,0.5,262.249,0.5
		s-82.782,69.384-139.842,162.773C58.328,268.137,70.053,327.101,70.053,327.101s-10.783,58.25,53.363,125.85
		c64.147,67.604,136.477,58.091,136.477,58.091S444.189,511.5,442.78,329.456C442.146,247.189,368.992,165.126,316.287,101.47z
		 M369.399,439.429c-19.821,19.817-46.597,25.171-59.811,11.965c-13.211-13.214-7.857-39.989,11.96-59.811
		c19.825-19.817,46.597-25.175,59.812-11.961C394.566,392.832,389.213,419.612,369.399,439.429z"></path></g></svg>