<?xml version="1.0" encoding="iso-8859-1"?>
<!DOCTYPE svg PUBLIC "-//W3C//DTD SVG 1.1//EN" "http://www.w3.org/Graphics/SVG/1.1/DTD/svg11.dtd">
<svg 
 version="1.1" xmlns="http://www.w3.org/2000/svg" xmlns:xlink="http://www.w3.org/1999/xlink" x="0px" y="0px" width="512px"
	 height="512px" viewBox="0 0 512 512" enable-background="new 0 0 512 512" xml:space="preserve"
><g fill="#ffffff" id="b75708d097f2188dff6617b0f00f1e94"><g></g><path display="inline" d="M139.864,58.57v23.223c0,25.55-20.905,46.455-46.455,46.455H46.955c-25.55,0-46.455-20.904-46.455-46.455
		V58.57c0-25.55,20.905-46.455,46.455-46.455h46.455C118.959,12.116,139.864,33.021,139.864,58.57z M93.409,197.934H46.955
		c-25.55,0-46.455,20.904-46.455,46.455v23.223c0,25.551,20.905,46.455,46.455,46.455h46.455c25.55,0,46.455-20.904,46.455-46.455
		v-23.223C139.864,218.838,118.959,197.934,93.409,197.934z M93.409,383.752H46.955c-25.55,0-46.455,20.904-46.455,46.455v23.223
		c0,25.549,20.905,46.455,46.455,46.455h46.455c25.55,0,46.455-20.906,46.455-46.455v-23.223
		C139.864,404.656,118.959,383.752,93.409,383.752z M465.046,12.116h-46.455c-25.55,0-46.454,20.905-46.454,46.455v23.223
		c0,25.55,20.904,46.455,46.454,46.455h46.455c25.55,0,46.454-20.904,46.454-46.455V58.57
		C511.5,33.021,490.596,12.116,465.046,12.116z M465.046,197.934h-46.455c-25.55,0-46.454,20.904-46.454,46.455v23.223
		c0,25.551,20.904,46.455,46.454,46.455h46.455c25.55,0,46.454-20.904,46.454-46.455v-23.223
		C511.5,218.838,490.596,197.934,465.046,197.934z M465.046,383.752h-46.455c-25.55,0-46.454,20.904-46.454,46.455v23.223
		c0,25.549,20.904,46.455,46.454,46.455h46.455c25.55,0,46.454-20.906,46.454-46.455v-23.223
		C511.5,404.656,490.596,383.752,465.046,383.752z M279.228,12.116h-46.455c-25.55,0-46.455,20.905-46.455,46.455v23.223
		c0,25.55,20.904,46.455,46.455,46.455h46.455c25.55,0,46.454-20.904,46.454-46.455V58.57
		C325.682,33.021,304.777,12.116,279.228,12.116z M279.228,197.934h-46.455c-25.55,0-46.455,20.904-46.455,46.455v23.223
		c0,25.551,20.904,46.455,46.455,46.455h46.455c25.55,0,46.454-20.904,46.454-46.455v-23.223
		C325.682,218.838,304.777,197.934,279.228,197.934z M279.228,383.752h-46.455c-25.55,0-46.455,20.904-46.455,46.455v23.223
		c0,25.549,20.904,46.455,46.455,46.455h46.455c25.55,0,46.454-20.906,46.454-46.455v-23.223
		C325.682,404.656,304.777,383.752,279.228,383.752z"></path></g></svg>