<?xml version="1.0" encoding="iso-8859-1"?>
<!DOCTYPE svg PUBLIC "-//W3C//DTD SVG 1.1//EN" "http://www.w3.org/Graphics/SVG/1.1/DTD/svg11.dtd">
<svg 
 version="1.1" xmlns="http://www.w3.org/2000/svg" xmlns:xlink="http://www.w3.org/1999/xlink" x="0px" y="0px" width="512px"
	 height="512px" viewBox="0 0 512 512" style="enable-background:new 0 0 512 512;" xml:space="preserve"
><g fill="#383838" id="afcae5a789ccd549f9c6e2a2f818024c"><g></g><path style="display: inline;" d="M65.077,40.184V0.5c148.302,0,282.886,58.685,381.847,154.071l-29.197,30.106
		C324.203,98.812,200.899,44.897,65.077,40.184z M244.452,330.893c-4.259-7.916-12.528-12.931-21.584-12.931
		c-13.518,0-24.515,10.997-24.515,24.515c0,9.388,5.276,17.794,13.601,21.932L244.452,330.893z M358.159,213.631l22.845-23.561
		c0.017-0.302,0.027-0.6,0.027-0.894c0-0.653-0.036-1.336-0.11-2.098c-8.714-7.828-17.658-15.316-26.616-22.283
		c-12.593,1.125-22.307,11.634-22.307,24.381c0,13.518,10.999,24.516,24.518,24.516C357.05,213.692,357.594,213.672,358.159,213.631
		z M355.602,220.577L250.982,328.47c-5.167-10.322-15.812-17.439-28.114-17.439c-17.339,0-31.446,14.107-31.446,31.446
		c0,12.645,7.52,23.543,18.311,28.533L73.499,511.5v-39.308c10.855,0,19.654-8.798,19.654-19.654
		c0-10.855-8.798-19.653-19.654-19.653v-157.58c3.646,1.481,7.624,2.314,11.792,2.314c17.339,0,31.446-14.107,31.446-31.446
		s-14.107-31.446-31.446-31.446c-4.169,0-8.146,0.833-11.792,2.314V59.976c103.927,3.608,199.586,39.657,277.22,98.315
		c-14.576,2.729-25.65,15.527-25.65,30.886C325.068,206.209,338.688,220.089,355.602,220.577z M152.114,364.096
		c0-16.283-13.197-29.48-29.48-29.48c-16.284,0-29.481,13.197-29.481,29.48c0,16.284,13.197,29.481,29.481,29.481
		C138.917,393.577,152.114,380.38,152.114,364.096z M191.421,138.077c0-21.711-17.596-39.308-39.308-39.308
		s-39.308,17.597-39.308,39.308c0,21.711,17.596,39.308,39.308,39.308S191.421,159.788,191.421,138.077z M250.383,236.346
		c0-10.855-8.798-19.653-19.654-19.653c-10.856,0-19.654,8.798-19.654,19.653c0,10.856,8.798,19.654,19.654,19.654
		C241.585,256,250.383,247.202,250.383,236.346z M110.806,246.173c0-14.069-11.446-25.515-25.515-25.515
		c-3.376,0-6.665,0.668-9.792,1.987v47.056c3.128,1.319,6.417,1.987,9.792,1.987C99.36,271.688,110.806,260.242,110.806,246.173z"></path></g></svg>