<?xml version="1.0" encoding="iso-8859-1"?>
<!DOCTYPE svg PUBLIC "-//W3C//DTD SVG 1.1//EN" "http://www.w3.org/Graphics/SVG/1.1/DTD/svg11.dtd">
<svg 
 version="1.1" xmlns="http://www.w3.org/2000/svg" xmlns:xlink="http://www.w3.org/1999/xlink" x="0px" y="0px" width="512px"
	 height="512px" viewBox="0 0 512 512" style="enable-background:new 0 0 512 512;" xml:space="preserve"
><g fill="#383838" id="afcae5a789ccd549f9c6e2a2f8138f16"><g></g><path style="display: inline;  clip-rule: evenodd;" d="M204.043,486.042c0,0,19.216-17.938,28.008-41.119
		c7.295-19.28,7.477-39.068,11.033-56.815c3.992-19.907,17.384-25.587,17.384-25.587s54.856-22.683,62.895-58.185
		c7.322-32.41-27.237-60.406-27.237-60.406L448.527,86.643l9.183-1.85c0,0,6.15-2.89,12.547-8.978
		c7.93-7.553,17.076-19.149,25.695-25.936c6.297-4.972,13.482-6.197,14.362-6.723c1.479-0.885,2.097-9.5-1.324-16.214
		c-3.675-7.186-11.46-12.48-11.46-12.48s-5.289-7.78-12.475-11.455c-6.715-3.421-15.325-2.794-16.214-1.325
		c-0.526,0.889-1.752,8.066-6.715,14.363c-6.795,8.619-18.39,17.774-25.93,25.686c-6.106,6.41-8.982,12.566-8.982,12.566
		l-1.86,9.173L268.072,215.872c0,0-27.991-34.56-60.4-27.229c-35.512,8.021-58.195,62.886-58.195,62.886
		s-5.689,13.401-25.586,17.384c-17.747,3.558-37.526,3.738-56.807,11.043c-23.182,8.782-41.12,28.004-41.12,28.004
		s-30.367,25.164-24.778,58.952c8.81,53.187,52.188,91.716,52.188,91.716s38.524,43.378,91.72,52.184
		C178.875,516.4,204.043,486.042,204.043,486.042z M151.492,360.507c-14.453-14.472-14.453-37.917,0.009-52.388
		c14.462-14.454,37.917-14.454,52.37,0c14.472,14.471,14.462,37.916,0.009,52.378C189.408,374.96,165.963,374.96,151.492,360.507z"></path></g></svg>