<?xml version="1.0" encoding="iso-8859-1"?>
<!DOCTYPE svg PUBLIC "-//W3C//DTD SVG 1.1//EN" "http://www.w3.org/Graphics/SVG/1.1/DTD/svg11.dtd">
<svg 
 version="1.1" xmlns="http://www.w3.org/2000/svg" xmlns:xlink="http://www.w3.org/1999/xlink" x="0px" y="0px" width="512px"
	 height="512px" viewBox="0 0 512 512" enable-background="new 0 0 512 512" xml:space="preserve"
><g fill="#383838" id="1b1c9b208ed950244c86edd4d2033b19"><g></g><path display="inline" d="M361.725,0.5H150.276c-29.074,0-52.862,23.788-52.862,52.862v405.276
		c0,29.074,23.788,52.862,52.862,52.862h211.448c29.073,0,52.861-23.788,52.861-52.862V53.362
		C414.586,24.288,390.798,0.5,361.725,0.5z M150.276,35.741h211.448c9.55,0,17.62,8.069,17.62,17.621v299.552H132.655V53.362
		C132.655,43.81,140.724,35.741,150.276,35.741z M229.569,432.207c0-14.6,11.834-26.432,26.431-26.432
		c14.599,0,26.431,11.832,26.431,26.432c0,14.599-11.832,26.431-26.431,26.431C241.403,458.638,229.569,446.806,229.569,432.207z
		 M150.276,449.827c-9.731,0-17.621-7.888-17.621-17.62s7.89-17.621,17.621-17.621c9.73,0,17.62,7.889,17.62,17.621
		S160.007,449.827,150.276,449.827z M361.725,449.827c-9.733,0-17.621-7.888-17.621-17.62s7.888-17.621,17.621-17.621
		c9.732,0,17.62,7.889,17.62,17.621S371.457,449.827,361.725,449.827z"></path></g></svg>