<?xml version="1.0" encoding="iso-8859-1"?>
<!DOCTYPE svg PUBLIC "-//W3C//DTD SVG 1.1//EN" "http://www.w3.org/Graphics/SVG/1.1/DTD/svg11.dtd">
<svg 
 version="1.1" xmlns="http://www.w3.org/2000/svg" xmlns:xlink="http://www.w3.org/1999/xlink" x="0px" y="0px" width="512px"
	 height="512px" viewBox="0 0 512 512" style="enable-background:new 0 0 512 512;" xml:space="preserve"
><g fill="#383838" id="afcae5a789ccd549f9c6e2a2f8198a9d"><g></g><path style="display: inline; " d="M350.141,25.374c-34.033,0-66.823,10.711-94.141,30.283
		c-27.317-19.572-60.107-30.283-94.137-30.283C72.883,25.374,0.5,97.432,0.5,186.006c0,143.811,248.23,300.62,254.169,300.62
		c5.922,0,256.831-156.81,256.831-300.62C511.5,97.432,439.112,25.374,350.141,25.374z M373.104,254.547
		c0,12.884-10.538,23.421-23.421,23.421h-46.842v46.842c0,12.883-10.538,23.421-23.421,23.421h-46.842
		c-12.883,0-23.421-10.538-23.421-23.421v-46.842h-46.841c-12.883,0-23.421-10.537-23.421-23.421v-46.842
		c0-12.881,10.538-23.421,23.421-23.421h46.841v-46.842c0-12.881,10.538-23.421,23.421-23.421h46.842
		c12.883,0,23.421,10.54,23.421,23.421v46.842h46.842c12.883,0,23.421,10.54,23.421,23.421V254.547z"></path></g></svg>