<?xml version="1.0" encoding="iso-8859-1"?>
<!DOCTYPE svg PUBLIC "-//W3C//DTD SVG 1.1//EN" "http://www.w3.org/Graphics/SVG/1.1/DTD/svg11.dtd">
<svg 
 version="1.1" xmlns="http://www.w3.org/2000/svg" xmlns:xlink="http://www.w3.org/1999/xlink" x="0px" y="0px" width="512px"
	 height="512px" viewBox="0 0 512 512" style="enable-background:new 0 0 512 512;" xml:space="preserve"
><g fill="#383838" id="afcae5a789ccd549f9c6e2a2f8138542"><g></g><path style="display: inline;" d="M116.636,441.27v47.003H23.727V441.27H116.636 M139.864,418.042H0.5V511.5h139.364V418.042
		L139.864,418.042z M488.272,441.27v47.003h-92.909V441.27H488.272 M511.5,418.042H372.137V511.5H511.5V418.042L511.5,418.042z
		 M302.454,441.27v47.003h-92.909V441.27H302.454 M325.682,418.042H186.318V511.5h139.363V418.042L325.682,418.042z
		 M139.864,279.227H0.5v93.459h139.364V279.227z M511.5,279.227H372.137v93.459H511.5V279.227z M325.682,279.227H186.318v93.459
		h139.363V279.227z M139.864,139.864H0.5v93.458h139.364V139.864z M511.5,139.864H372.137v93.458H511.5V139.864z M488.272,23.727
		v47.004h-92.909V23.727H488.272 M511.5,0.5H372.137v93.458H511.5V0.5L511.5,0.5z"></path></g></svg>