<?xml version="1.0" encoding="iso-8859-1"?>
<!DOCTYPE svg PUBLIC "-//W3C//DTD SVG 1.1//EN" "http://www.w3.org/Graphics/SVG/1.1/DTD/svg11.dtd">
<svg 
 version="1.1" xmlns="http://www.w3.org/2000/svg" xmlns:xlink="http://www.w3.org/1999/xlink" x="0px" y="0px" width="512px"
	 height="512px" viewBox="0 0 512 512" style="enable-background:new 0 0 512 512;" xml:space="preserve"
><g fill="#ffffff" id="afcae5a789ccd549f9c6e2a2f80ae98a"><g></g><path style="display: inline;" d="M317.962,266.211v22.987c7.01,3.058,165.845,71.361,171.552,78.073
		c5.685,6.679,10.156,13.456,13.449,20.525c3.94,8.11,6.791,16.655,8.537,25.637v76.192H0.5v-76.192
		c1.987-8.981,4.917-17.526,8.858-25.637c3.286-7.069,7.797-13.847,13.484-20.525c5.706-6.712,13.025-11.681,22.008-14.991
		c4.607-1.516,148.003-62.313,154.792-65.369v-22.032c-0.427-1.726-4.148-15.325-5.262-19.067
		c-1.288-4.347-2.848-9.065-4.594-14.118c-6.343-11.831-11.395-25.221-15.116-40.235c-3.723-15.01-5.604-30.958-5.604-47.822
		c0-22.144,2.371-40.878,7.07-56.202c4.729-15.346,11.134-27.822,19.253-37.448c8.087-9.646,17.56-16.675,28.424-21.042
		c10.831-4.408,22.487-6.57,34.984-6.57c12.276,0,23.816,2.099,34.661,6.405c10.855,4.283,20.376,11.165,28.588,20.687
		c8.228,9.544,14.673,22.021,19.401,37.489c4.729,15.409,7.069,34.351,7.069,56.682c0,16.447-1.809,32.019-5.427,46.825
		c-3.616,14.804-8.611,28.092-14.949,39.963c-1.751,5.428-3.41,10.584-4.92,15.388C321.901,250.012,317.962,264.483,317.962,266.211
		"></path></g></svg>