<?xml version="1.0" encoding="iso-8859-1"?>
<!DOCTYPE svg PUBLIC "-//W3C//DTD SVG 1.1//EN" "http://www.w3.org/Graphics/SVG/1.1/DTD/svg11.dtd">
<svg 
 version="1.1" xmlns="http://www.w3.org/2000/svg" xmlns:xlink="http://www.w3.org/1999/xlink" x="0px" y="0px" width="512px"
	 height="512px" viewBox="0 0 512 512" style="enable-background:new 0 0 512 512;" xml:space="preserve"
><g fill="#383838" id="afcae5a789ccd549f9c6e2a2f81499f7"><g></g><path style="display: inline;" d="M189.478,333.12c-22.965,0-41.579-14.893-41.579-33.261s18.614-33.262,41.579-33.262
		c22.958,0,41.575,14.894,41.575,33.262S212.435,333.12,189.478,333.12z M364.102,299.859c0-18.368-18.614-33.262-41.579-33.262
		c-22.957,0-41.575,14.894-41.575,33.262s18.618,33.261,41.575,33.261C345.487,333.12,364.102,318.228,364.102,299.859z
		 M247.686,349.749l-33.265,33.266h83.158l-33.265-33.266H247.686z M478.351,399.779c13.976,13.977,13.976,36.638,0,50.622
		c-13.4,13.392-34.751,13.915-48.81,1.629c0.75,0.929,1.228,1.402,1.228,1.402s-0.481-0.47-1.402-1.228
		c12.282,14.063,11.759,35.417-1.637,48.813c-13.977,13.976-36.638,13.976-50.618,0c-13.979-13.979-13.979-36.642,0-50.617
		c0.095-0.099,0.197-0.179,0.292-0.273c-0.246-1.781-0.731-4.426-1.721-7.686c-1.561-5.153-4.236-7.837-4.236-7.837l-15.658-15.658
		v47.219H156.212v-47.219l-15.658,15.658c0,0-2.68,2.684-4.241,7.837c-0.985,3.26-1.47,5.904-1.717,7.686
		c0.095,0.095,0.197,0.175,0.292,0.273c13.979,13.976,13.979,36.638,0,50.617c-13.98,13.976-36.642,13.976-50.618,0
		c-13.396-13.396-13.919-34.751-1.637-48.813c-0.921,0.758-1.402,1.228-1.402,1.228s0.474-0.474,1.228-1.402
		c-14.06,12.286-35.414,11.763-48.81-1.629c-13.976-13.984-13.976-36.646,0-50.622c13.98-13.979,36.642-13.979,50.622,0
		c0.095,0.095,0.174,0.197,0.269,0.296c1.777-0.25,4.426-0.735,7.685-1.721c5.154-1.562,7.833-4.24,7.833-4.24l22.893-22.894
		c-25.89-30.449-41.576-69.838-41.576-112.942c0-44.265,16.502-84.653,43.649-115.43l-24.964-24.962c0,0-2.679-2.677-7.835-4.238
		c-3.259-0.987-5.908-1.473-7.685-1.721c-0.095,0.099-0.174,0.199-0.269,0.294c-13.98,13.979-36.642,13.979-50.62,0
		c-13.978-13.978-13.978-36.64,0-50.62c13.396-13.396,34.749-13.917,48.81-1.633c-0.754-0.927-1.228-1.402-1.228-1.402
		s0.479,0.474,1.402,1.23C70.352,45.732,70.875,24.38,84.271,10.982c13.978-13.976,36.638-13.976,50.618,0
		c13.979,13.982,13.979,36.642,0,50.62c-0.095,0.097-0.197,0.176-0.292,0.269c0.247,1.781,0.731,4.426,1.721,7.685
		c1.561,5.158,4.237,7.837,4.237,7.837l29.115,29.116c-0.015,0.009-0.026,0.017-0.042,0.026C195.105,92,224.569,83.653,256,83.653
		s60.896,8.346,86.372,22.881c-0.015-0.009-0.026-0.017-0.041-0.026l29.115-29.116c0,0,2.676-2.679,4.236-7.837
		c0.989-3.259,1.475-5.904,1.721-7.685c-0.095-0.093-0.197-0.172-0.292-0.269c-13.979-13.978-13.979-36.638,0-50.62
		c13.98-13.976,36.642-13.976,50.618,0c13.396,13.398,13.919,34.75,1.637,48.814c0.921-0.756,1.402-1.23,1.402-1.23
		s-0.478,0.476-1.228,1.402c14.059-12.284,35.409-11.763,48.81,1.633c13.976,13.979,13.976,36.642,0,50.62
		c-13.979,13.979-36.642,13.979-50.621,0c-0.095-0.095-0.175-0.195-0.27-0.294c-1.777,0.248-4.426,0.733-7.685,1.721
		c-5.158,1.561-7.834,4.238-7.834,4.238l-24.966,24.962c27.149,30.777,43.649,71.165,43.649,115.43
		c0,43.104-15.686,82.497-41.576,112.942l22.893,22.894c0,0,2.676,2.679,7.834,4.24c3.259,0.985,5.907,1.471,7.685,1.721
		c0.095-0.099,0.175-0.201,0.27-0.296C441.709,385.8,464.371,385.8,478.351,399.779z M381.921,137.361
		c0.129,0.132,0.258,0.269,0.383,0.403C382.175,137.63,382.05,137.494,381.921,137.361z M376.827,132.271
		c0.091,0.089,0.186,0.176,0.277,0.266C377.013,132.448,376.918,132.361,376.827,132.271z M134.896,132.537
		c0.091-0.089,0.186-0.176,0.277-0.266C135.082,132.361,134.987,132.448,134.896,132.537z M129.697,137.765
		c0.125-0.134,0.254-0.271,0.383-0.403C129.951,137.494,129.826,137.63,129.697,137.765z M333.581,369.725
		c36.467-25.443,58.238-67.106,58.238-111.446c0-74.893-60.93-135.82-135.819-135.82s-135.819,60.927-135.819,135.82
		c0,44.34,21.771,86.003,58.238,111.446l16.599,11.584v20.24v25.812h121.964v-25.812v-20.24L333.581,369.725z"></path></g></svg>