<?xml version="1.0" encoding="iso-8859-1"?>
<!DOCTYPE svg PUBLIC "-//W3C//DTD SVG 1.1//EN" "http://www.w3.org/Graphics/SVG/1.1/DTD/svg11.dtd">
<svg 
 version="1.1" xmlns="http://www.w3.org/2000/svg" xmlns:xlink="http://www.w3.org/1999/xlink" x="0px" y="0px" width="512px"
	 height="512px" viewBox="0 0 512 512" style="enable-background:new 0 0 512 512;" xml:space="preserve"
><g fill="#383838" id="afcae5a789ccd549f9c6e2a2f8198400"><g></g><path style="display: inline;" d="M485.95,511.5H26.05C40.273,453.892,137.764,409.298,256,409.298
		c40.443,0,78.452,5.224,111.539,14.395c6.76-9.741,12.625-20.435,17.39-32.031c4.501-10.959,7.784-22.173,9.967-33.464H153.798
		c-14.048,0-25.546-11.498-25.546-25.546c0-14.054,11.498-25.551,25.546-25.551h243.441
		c-5.578-56.863-38.148-109.123-89.729-134.114l-30.056,70.591c-5.506,12.93-20.587,19.002-33.518,13.5l-23.507-10.011
		c-12.931-5.506-19.007-20.587-13.501-33.513l55.054-129.295c4.177-9.813,10.365-24.354,15.521-36.453
		c-12.485-5.717-18.445-20.137-13.204-32.449c5.336-12.526,20.277-18.27,33.203-12.764l19.52,8.309
		c1.172,0.31,2.349,0.6,3.498,1.089l23.507,10.011c1.141,0.485,2.156,1.129,3.189,1.758l20.812,8.861
		c12.931,5.506,19.146,20.258,13.811,32.781c-5.331,12.526-20.277,18.271-33.203,12.764l-0.638-0.27
		c-5.147,12.084-11.322,26.593-15.495,36.388l-3.619,8.506c102.265,49.897,148.357,180.286,102.74,291.322
		c-4.082,9.935-8.839,19.313-14.058,28.241C454.35,460.381,479.289,484.513,485.95,511.5z"></path></g></svg>