<?xml version="1.0" encoding="iso-8859-1"?>
<!DOCTYPE svg PUBLIC "-//W3C//DTD SVG 1.1//EN" "http://www.w3.org/Graphics/SVG/1.1/DTD/svg11.dtd">
<svg 
 version="1.1" xmlns="http://www.w3.org/2000/svg" xmlns:xlink="http://www.w3.org/1999/xlink" x="0px" y="0px" width="512px"
	 height="512px" viewBox="0 0 512 512" enable-background="new 0 0 512 512" xml:space="preserve"
><g fill="#383838" id="5151e0c8492e5103c096af88a5066758"><g></g><path display="inline" d="M270.262,292.378L269.637,511.5l230.379-124.73V160.401L270.262,292.378z M468.959,368.27
		l-168.117,91.017l0.424-148.902l167.693-96.327V368.27z M11.984,160.401V386.77L242.363,511.5l-0.622-219.122L11.984,160.401z
		 M43.041,368.27V214.057l167.696,96.327l0.422,148.907L43.041,368.27z M255.586,0.693L255.244,0.5L21.416,134.803l235.002,134.108
		l0.342,0.191l233.828-134.308L255.586,0.693z M256.706,233.318L83.924,134.717l171.372-98.431l172.784,98.597L256.706,233.318z"></path></g></svg>