<?xml version="1.0" encoding="iso-8859-1"?>
<!DOCTYPE svg PUBLIC "-//W3C//DTD SVG 1.1//EN" "http://www.w3.org/Graphics/SVG/1.1/DTD/svg11.dtd">
<svg 
 version="1.1" xmlns="http://www.w3.org/2000/svg" xmlns:xlink="http://www.w3.org/1999/xlink" x="0px" y="0px" width="512px"
	 height="512px" viewBox="0 0 512 512" enable-background="new 0 0 512 512" xml:space="preserve"
><g fill="#383838" id="5151e0c8492e5103c096af88a523d9c9"><g></g><path display="inline" d="M448.489,139.969c-0.2-0.22-0.416-0.437-0.641-0.641c-0.974-0.894-6.329-5.344-15.77-5.344
		c-8.624,0-17.932,3.647-27.646,10.841c-21.101,15.616-29.759,41.203-37.394,63.775c-3.701,10.937-7.194,21.267-11.693,29.43
		c-2.828,5.136-5.848,9.282-8.667,12.554L311.241,71.839c-0.042-0.183-0.075-0.366-0.125-0.549
		c-2.637-10.296-14.048-29.775-38.35-29.775l-1.239,0.017c-9.682,0.258-19.496,3.855-26.973,7.439
		c-0.075-0.071-0.158-0.133-0.241-0.204l-5.764-23.833C236.579,16.485,226.49,0.5,202.412,0.5c-7.086,0-15.021,1.385-23.587,4.117
		c-29.684,9.473-31.688,33.276-28.694,44.159l3.435,14.738c-8.142-1.817-18.755-1.555-29.126,1.709
		C100.611,72.725,94.715,94.2,94.474,95.111c-0.366,1.389-0.433,2.844-0.2,4.262l5.131,31.193c-2.628-0.42-5.389-0.69-8.175-0.69
		c-6.005,0-11.245,1.264-15.578,3.759c-19.329,11.145-19.77,47.844-19.653,55.466c0.333,6.371,8.792,157.255,69.198,259.883
		c30.407,51.67,71.452,62.52,100.528,62.516c22.106,0,39.98-6.184,47.366-9.198c4.524,1.035,11.419,2.087,19.611,2.087
		c24.36,0,68.957-9.631,93.958-74.121C479.396,190.96,454.436,146.46,448.489,139.969z M367.564,422.869
		c-19.554,50.455-51.5,61.047-74.862,61.047c-10.271,0-17.324-2.146-17.391-2.166v0.004c-2.479-0.781-5.19-0.591-7.552,0.549
		c-0.175,0.088-18.364,8.725-42.035,8.725c-34.524,0-62.411-17.641-82.888-52.427c-57.828-98.253-66.312-249.05-66.378-250.172
		c-0.191-14.846,3.626-33.717,9.415-37.053c1.148-0.661,3.052-1.027,5.356-1.027c4.757,0,10.205,1.493,13.756,2.715l25.982,128.935
		c0.981,4.861,5.248,8.218,10.022,8.218c0.674,0,1.356-0.067,2.038-0.204c5.539-1.114,9.132-6.513,8.009-12.056L114.909,98.674
		c1.48-3.41,5.755-10.799,15.677-13.922c4.134-1.302,8.134-1.963,11.894-1.963c11.952,0,18.223,6.633,18.381,6.795
		c0.199,0.229,0.424,0.42,0.64,0.628l35.339,162.079c1.04,4.791,5.281,8.059,9.989,8.059c0.724,0,1.456-0.074,2.188-0.236
		c5.531-1.206,9.024-6.658,7.826-12.185l-46.875-204.18c-0.382-1.397-3.202-13.793,15.079-19.624
		c6.554-2.092,12.392-3.152,17.366-3.152c13.024,0,15.836,7.381,16.218,8.695l45.079,216.963c0.939,4.903,5.231,8.309,10.039,8.309
		c0.64,0,1.297-0.058,1.945-0.183c5.548-1.069,9.19-6.429,8.126-11.985L250.443,68.949c6.121-3.227,14.505-6.762,21.633-6.953
		l0.69-0.008c13.647,0,17.848,12.151,18.464,14.21l38.782,195.605c0.632,3.177,2.728,5.867,5.655,7.256
		c2.928,1.394,6.338,1.311,9.199-0.207c1.646-0.878,16.417-9.183,28.41-30.94c5.382-9.76,9.157-20.926,13.158-32.749
		c7.003-20.693,14.238-42.084,30.174-53.878c8.026-5.938,13.133-6.824,15.47-6.824c0.707,0,1.256,0.075,1.672,0.17
		C436.222,161.514,448.473,214.09,367.564,422.869z"></path></g></svg>