<?xml version="1.0" encoding="iso-8859-1"?>
<!DOCTYPE svg PUBLIC "-//W3C//DTD SVG 1.1//EN" "http://www.w3.org/Graphics/SVG/1.1/DTD/svg11.dtd">
<svg 
 version="1.1" xmlns="http://www.w3.org/2000/svg" xmlns:xlink="http://www.w3.org/1999/xlink" x="0px" y="0px" width="512px"
	 height="512px" viewBox="0 0 512 512" enable-background="new 0 0 512 512" xml:space="preserve"
><g fill="#ffffff" id="5151e0c8492e5103c096af88a523efc9"><g></g><path display="inline" d="M132.004,338.024c2.716,5.118,5.889,10.628,9.68,16.649c-39.168,1.606-59.836-18.697-69.233-32.534
		c-3.741-5.504-6.184-10.623-7.552-14.136c-5.393-3.588-17.709-12.776-27.805-27.637c-13.269-19.539-24.724-52.087-3.862-96.111
		C74.641,96.808,172.195,22.248,176.321,19.116c5.078-3.558,29.943-20.01,46.263-12.108c3.649,1.774,6.893,4.719,9.63,8.753
		c1.277,1.875,2.352,3.852,3.274,5.813l18.621-17.688c0.852-0.806,1.855-1.424,2.96-1.814c0.72-0.253,17.851-6.092,33.766,6.498
		c6.933,5.484,11.95,12.499,14.444,18.804l8.343-9.037c5.95-6.979,22.857-16.502,42.776-0.872
		c5.747,4.511,10.299,9.209,13.532,13.979c10.988,16.178,4.855,30.258,0.071,35.442l-13.391,14.754
		c-0.011,0.086-0.011,0.172-0.021,0.253c5.818,3.391,12.722,8.348,17.313,14.734l0.577,0.826c0.862,1.277,1.582,2.554,2.221,3.826
		c-3.548-0.644-7.319-1.044-11.363-1.044c-2.443,0-4.927,0.142-7.38,0.421c-0.75,0.086-1.5,0.182-2.25,0.289
		c-4.835-8.398-12.204-15.772-21.652-20.846l23.669-24.439c0.71-0.862,4.39-6.123-1.551-14.871
		c-2.271-3.345-5.646-6.786-10.045-10.238c-12.266-9.625-19.311-2.073-20.081-1.176l-43.811,47.171
		c-3.942,1.074-7.693,2.352-11.15,3.892c-22.199,9.878-32.538,28.261-34.251,44.981l-11.749,12.635
		c-7.866,4.886-13.857,11.161-18.165,18.114c-2.848,0.999-6.143,0.441-8.474-1.784c-0.446-0.416-0.831-0.877-1.166-1.358
		c-2.149-3.167-1.885-7.511,0.861-10.395l92.811-97.737c0.041-0.243,0.061-0.481,0.132-0.72c0.03-0.183,1.632-7.425-3.832-15.458
		c-1.713-2.524-3.983-4.916-6.74-7.095c-6.63-5.246-13.553-4.744-16.513-4.187l-104.022,106.13
		c-3.213,3.279-8.474,3.33-11.759,0.111c-0.405-0.39-0.76-0.821-1.064-1.272c-2.18-3.208-1.875-7.613,0.942-10.486l74.809-76.324
		c-0.801-2.939-2.281-7.288-4.45-10.486c-1.054-1.546-2.169-2.661-3.132-3.127c-4.886-2.372-19.32,3.674-29.213,10.577
		c-0.72,0.563-98.214,75.097-137.858,158.821c-14.029,29.64-13.157,56.441,2.605,79.643c10.806,15.91,24.906,24.196,25.048,24.277
		c1.845,1.064,3.213,2.798,3.821,4.82c0.01,0.056,1.794,5.777,6.478,12.676C94.083,324.396,108.021,336.473,132.004,338.024z
		 M489.37,404.201c-3.933,48.555-30.105,71.027-51.362,81.326c-16.168,7.83-31.434,9.635-37.9,10.05
		c-2.939,2.362-7.612,5.57-13.604,8.475c-17.81,8.626-53.836,17.384-94.96-20.922C138.968,340.989,141.451,299.606,143.499,292.754
		c0.081-0.233,0.162-0.467,0.253-0.699c0.396-0.994,2.727-6.144,9.63-9.488c6.315-3.056,14.404-3.685,24.064-1.865
		c20.952,3.943,36.35,19.584,49.933,33.391c6.579,6.685,12.792,13,18.965,17.379c3.893,2.752,7.572,4.714,10.785,6.107
		l-37.394-143.261c-0.041-0.147-0.071-0.289-0.102-0.446c-1.723-8.464-0.284-26.746,17.496-35.356l0.912-0.426
		c7.167-3.239,15.621-4.085,22.352-4.116c0.03-0.076,0.07-0.152,0.111-0.233l-4.237-19.467c-1.551-6.878,0.173-22.144,17.779-30.668
		c5.181-2.514,11.475-4.308,18.702-5.342c25.058-3.593,34.962,13.107,36.624,22.124l2.706,11.997
		c5.312-4.217,13.168-7.785,21.905-9.072c20.081-2.955,32.002,10.664,32.498,11.242c0.761,0.892,1.328,1.926,1.663,3.051
		l7.298,24.622c1.774-1.237,3.689-2.413,5.728-3.401c4.399-2.129,8.677-3.056,12.722-2.768
		c18.083,1.303,31.413,27.982,34.018,33.598C449.929,194.434,497.186,307.761,489.37,404.201z M432.717,196.41
		c-5.119-10.927-14.597-23.37-20.01-23.76c-1.074-0.076-2.595,0.33-4.277,1.146c-3.478,1.688-6.943,4.708-9.103,6.857l26.669,103.49
		c1.004,3.902-0.922,7.866-4.419,9.559c-0.487,0.238-1.004,0.432-1.562,0.573c-4.439,1.146-8.981-1.53-10.126-5.976l-37.08-143.899
		c-2.291-1.967-8.038-5.859-16.401-4.627c-3.477,0.512-6.64,1.45-9.387,2.777c-8.737,4.232-10.978,11.302-11.038,11.48
		c-0.062,0.238-0.162,0.456-0.244,0.689l31.566,131.031c0.932,3.873-1.004,7.765-4.45,9.433c-0.527,0.253-1.095,0.461-1.683,0.604
		c-4.471,1.074-8.961-1.673-10.035-6.139l-38.054-165.911c-0.213-1.156-2.534-11.221-17.972-9.006
		c-5.535,0.791-10.178,2.083-13.816,3.847c-9.519,4.612-8.961,11.003-8.778,12.103l43.892,174.619
		c1.044,3.918-0.882,7.927-4.399,9.635c-0.466,0.224-0.973,0.416-1.49,0.553c-4.439,1.186-8.991-1.449-10.187-5.89l-37.161-138.927
		c-5.616-0.188-13.005,0.198-18.287,2.58l-0.507,0.238c-9.975,4.835-8.748,15.21-8.464,16.933l40.922,156.773
		c0.669,2.539,0.081,5.256-1.562,7.304c-1.652,2.058-4.166,3.208-6.802,3.106c-1.51-0.061-15.255-0.896-31.737-12.559
		c-7.39-5.23-14.11-12.058-21.216-19.285c-12.448-12.65-25.321-25.731-41.155-28.712c-7.967-1.5-12.022-0.34-13.725,0.491
		c-0.517,0.249-0.892,0.502-1.166,0.715c0.628,5.909,10.299,48.696,143.413,172.703c32.174,29.974,59.289,26.4,76.369,18.124
		c7.512-3.639,11.9-7.704,11.951-7.744v0.005c1.541-1.45,3.589-2.271,5.718-2.275c0.162,0,16.512-0.127,33.825-8.51
		c25.251-12.23,39.392-35.007,42.047-67.698C480.278,310.528,433.062,197.251,432.717,196.41z"></path></g></svg>