<?xml version="1.0" encoding="iso-8859-1"?>
<!DOCTYPE svg PUBLIC "-//W3C//DTD SVG 1.1//EN" "http://www.w3.org/Graphics/SVG/1.1/DTD/svg11.dtd">
<svg 
 version="1.1" xmlns="http://www.w3.org/2000/svg" xmlns:xlink="http://www.w3.org/1999/xlink" x="0px" y="0px" width="512px"
	 height="512px" viewBox="0 0 512 512" enable-background="new 0 0 512 512" xml:space="preserve"
><g fill="#383838" id="b75708d097f2188dff6617b0f00c607b"><g></g><path display="inline" d="M494.749,92.801V71.035l-23.191,8.993c-0.075,0.027-19.399,7.036-57.196,7.036
		c-18.016,0-26.54-3.285-36.408-7.088c-11.299-4.354-24.103-9.288-48.044-9.288c-46.097,0-70.948,17.799-73.628,19.828L256,90.728
		l-0.281-0.212c-2.682-2.029-27.531-19.828-73.629-19.828c-23.94,0-36.745,4.934-48.043,9.288
		c-9.87,3.803-18.395,7.088-36.408,7.088c-37.797,0-57.122-7.009-57.313-7.08l-23.19-8.993l0.102,22.013l-16.68,0.006L0.5,111.3
		v298.716v8.675l8.088,3.14c1.04,0.403,25.995,9.868,74.271,9.868c25.658,0,39.302-5.257,51.341-9.901
		c11.299-4.354,21.063-8.118,41.556-8.118c40.492,0,61.837,15.295,62.037,15.453l16.094,12.181h4.225l16.094-12.181
		c0.129-0.1,21.578-15.453,62.037-15.453c20.493,0,30.257,3.764,41.556,8.118c12.039,4.645,25.684,9.901,51.342,9.901
		c48.276,0,73.231-9.465,74.271-9.868l8.088-3.14v-8.675V111.3V92.794L494.749,92.801z M363.702,92.865
		c0.844,0.289,1.676,0.582,2.495,0.879c0.141,0.052,0.278,0.104,0.42,0.156c0.682,0.248,1.359,0.499,2.029,0.753
		c0.17,0.064,0.337,0.129,0.507,0.191c1.705,0.648,3.39,1.304,5.09,1.952c0.607,0.231,1.215,0.459,1.826,0.688
		c0.287,0.106,0.582,0.212,0.869,0.318c0.503,0.183,1.006,0.366,1.514,0.545c0.315,0.112,0.632,0.223,0.952,0.335
		c0.516,0.176,1.035,0.351,1.56,0.526c0.308,0.1,0.607,0.202,0.919,0.299c0.687,0.22,1.385,0.435,2.096,0.645
		c0.154,0.046,0.304,0.096,0.462,0.139c0.849,0.248,1.722,0.485,2.615,0.715c0.291,0.075,0.591,0.146,0.886,0.218
		c0.641,0.158,1.289,0.312,1.955,0.46c0.35,0.079,0.707,0.154,1.064,0.229c0.665,0.142,1.348,0.274,2.038,0.403
		c0.349,0.064,0.694,0.131,1.048,0.191c0.977,0.17,1.979,0.331,3.019,0.478c0.075,0.011,0.142,0.021,0.217,0.033
		c1.11,0.154,2.271,0.289,3.464,0.414c0.361,0.037,0.74,0.068,1.11,0.104c0.856,0.081,1.729,0.154,2.628,0.218
		c0.457,0.031,0.919,0.063,1.385,0.089c0.911,0.054,1.851,0.098,2.812,0.135c0.437,0.017,0.86,0.035,1.306,0.05
		c1.414,0.04,2.861,0.066,4.375,0.066c42.237,0,63.354-8.188,63.354-8.188v290.756c0,0-21.117,8.192-63.354,8.192
		c-42.227,0-42.771-16.376-84.452-16.376c-41.71,0-63.351,16.376-63.351,16.376v-290.76c0,0,0.149-0.108,0.32-0.229
		c0.054-0.038,0.149-0.104,0.216-0.15c0.2-0.137,0.482-0.324,0.799-0.532c0.142-0.091,0.308-0.197,0.474-0.304
		c0.366-0.233,0.819-0.507,1.302-0.796c0.208-0.123,0.396-0.237,0.62-0.368c1.484-0.861,3.422-1.9,5.788-3.019
		c0.316-0.15,0.674-0.304,1.007-0.458c0.91-0.416,1.88-0.84,2.906-1.271c0.445-0.187,0.902-0.372,1.373-0.56
		c1.076-0.432,2.225-0.863,3.418-1.293c0.462-0.167,0.898-0.333,1.376-0.497c1.71-0.59,3.506-1.175,5.436-1.734h-0.004
		c9.905-2.872,22.705-5.167,38.32-5.167C345.471,87.721,355.297,90.004,363.702,92.865z M182.09,87.721
		c15.724,0,28.586,2.329,38.522,5.227c1.861,0.545,3.597,1.11,5.252,1.682c0.52,0.179,1,0.36,1.499,0.541
		c1.144,0.414,2.25,0.83,3.288,1.246c0.484,0.195,0.962,0.389,1.424,0.582c1.01,0.424,1.963,0.842,2.861,1.252
		c0.337,0.156,0.697,0.314,1.017,0.466c2.362,1.116,4.294,2.152,5.774,3.011c0.22,0.129,0.405,0.243,0.607,0.362
		c0.482,0.289,0.932,0.561,1.3,0.794c0.168,0.108,0.339,0.216,0.482,0.31c0.314,0.206,0.592,0.391,0.79,0.528
		c0.064,0.046,0.162,0.11,0.214,0.148c0.173,0.121,0.32,0.229,0.32,0.229v290.76c0,0-21.641-16.376-63.351-16.376
		c-41.681,0-42.226,16.376-84.451,16.376c-42.238,0-63.355-8.192-63.355-8.192V95.909c0,0,21.117,8.188,63.355,8.188
		c1.505,0,2.946-0.027,4.35-0.066c0.449-0.013,0.88-0.033,1.318-0.05c0.95-0.038,1.884-0.079,2.788-0.133
		c0.468-0.027,0.928-0.058,1.383-0.089c0.877-0.063,1.73-0.133,2.568-0.212c0.391-0.036,0.792-0.071,1.175-0.11
		c1.102-0.114,2.175-0.241,3.21-0.38c0.081-0.01,0.167-0.019,0.248-0.031c1.108-0.154,2.175-0.322,3.214-0.503
		c0.339-0.058,0.666-0.123,0.998-0.185c0.701-0.129,1.391-0.262,2.063-0.401c0.364-0.077,0.723-0.154,1.079-0.233
		c0.638-0.142,1.262-0.289,1.877-0.441c0.322-0.079,0.648-0.156,0.967-0.237c0.75-0.193,1.484-0.393,2.206-0.599
		c0.147-0.042,0.302-0.081,0.447-0.123c0.848-0.248,1.676-0.501,2.489-0.761c0.306-0.098,0.603-0.197,0.902-0.297
		c0.52-0.17,1.036-0.341,1.543-0.516c0.341-0.119,0.678-0.237,1.012-0.355c0.462-0.164,0.921-0.329,1.376-0.495
		c0.343-0.125,0.688-0.25,1.029-0.376c0.397-0.148,0.788-0.295,1.183-0.445c1.923-0.728,3.818-1.466,5.735-2.194
		c0.091-0.035,0.181-0.069,0.272-0.104c0.698-0.264,1.403-0.528,2.114-0.788c0.133-0.05,0.269-0.1,0.403-0.147
		c0.811-0.297,1.63-0.588,2.466-0.875l0,0C156.514,90.05,166.379,87.721,182.09,87.721z"></path></g></svg>