<?xml version="1.0" encoding="iso-8859-1"?>
<!DOCTYPE svg PUBLIC "-//W3C//DTD SVG 1.1//EN" "http://www.w3.org/Graphics/SVG/1.1/DTD/svg11.dtd">
<svg 
 version="1.1" xmlns="http://www.w3.org/2000/svg" xmlns:xlink="http://www.w3.org/1999/xlink" x="0px" y="0px" width="512px"
	 height="512px" viewBox="0 0 512 512" style="enable-background:new 0 0 512 512;" xml:space="preserve"
><g fill="#383838" id="afcae5a789ccd549f9c6e2a2f81057ea"><g></g><path style="display: inline;" d="M511.5,255.144c0.004,22.935-4.375,44.15-13.141,63.646
		c-8.758,19.504-21.263,34.263-37.489,44.301c-15.98,10.039-34.404,15.055-55.275,15.055c-27.056,0-50.768-6.454-71.123-19.354
		c-17.607-11.298-39.847-31.388-66.736-60.282l26.023-30.203c21.667,22.755,39.885,38.745,54.623,47.906
		c17.777,10.613,35.435,15.915,52.954,15.915c21.911,0,39.05-7.169,51.413-21.504c12.367-14.625,18.559-32.262,18.555-52.904
		c0-22.647-6.188-41.282-18.555-55.912c-12.111-14.904-28.213-22.361-48.314-22.361c-11.336,0-22.294,2.295-32.86,6.878
		c-10.563,4.304-23.192,12.047-37.876,23.229c-14.697,10.896-137.864,137.768-157.708,150.098
		c-19.84,12.334-42.908,18.497-69.189,18.497c-33.497-0.004-59.65-11.618-78.463-34.84C9.782,320.083,0.5,290.694,0.5,255.14
		c0-33.257,9.797-61.788,29.384-85.587c19.836-23.795,45.735-35.701,77.686-35.701c15.465,0.004,29.638,2.583,42.525,7.748
		c12.883,5.156,28.602,15.482,47.153,30.964c15.615,12.613,31.759,27.521,48.43,44.675l-24.335,26.161
		c-14.068-12.829-28.682-22.834-40.33-31.696c-14.688-11.469-27.572-19.641-38.65-24.514c-11.083-4.87-23.196-7.315-36.337-7.315
		c-18.809,0-34.404,7.315-46.771,21.937c-12.367,14.626-18.551,33.255-18.555,55.912c0.004,15.77,3.219,29.102,9.664,39.997
		c6.442,10.895,14.301,19.353,23.583,25.379c9.531,6.013,21.388,9.028,35.556,9.028c18.551-0.004,36.595-5.443,54.119-16.344
		c17.524-10.891,132.32-128.019,151.132-143.219c18.818-15.486,34.662-25.808,47.546-30.969c12.883-5.156,26.926-7.743,42.13-7.743
		c31.963,0.004,57.721,11.906,77.303,35.697C501.582,193.069,511.5,221.593,511.5,255.144z"></path></g></svg>