<?xml version="1.0" encoding="iso-8859-1"?>
<!DOCTYPE svg PUBLIC "-//W3C//DTD SVG 1.1//EN" "http://www.w3.org/Graphics/SVG/1.1/DTD/svg11.dtd">
<svg 
 version="1.1" xmlns="http://www.w3.org/2000/svg" xmlns:xlink="http://www.w3.org/1999/xlink" x="0px" y="0px" width="512px"
	 height="512px" viewBox="0 0 512 512" style="enable-background:new 0 0 512 512;" xml:space="preserve"
><g fill="#383838" id="afcae5a789ccd549f9c6e2a2f808af88"><g></g><path style="display: inline;" d="M221.916,238.175h-90.884v-52.156c0-33.333,15.074-50.006,45.226-50.006
		c30.438,0,45.658,16.672,45.658,50.006V238.175z M448.734,0.5H63.268c-26.5,0-48.184,19.446-48.184,43.214v129.64v21.606v43.214
		h48.184h11.235v-52.156c0-34.496,9.201-59.715,27.614-75.662c18.403-15.94,43.115-23.916,74.141-23.916
		c31.016,0,55.8,7.976,74.354,23.916c18.548,15.947,27.832,41.167,27.832,75.662v52.156h87.4v-83.9l-13.92,13.917
		c-2.896,2.608-6.377,3.914-10.434,3.914c-5.223,0-9.57-2.317-13.045-6.959c-3.48-4.632-5.223-9.852-5.223-15.654
		c0-8.98,3.627-15.796,10.871-20.436L385.41,89.92c3.475-2.895,7.387-4.349,11.736-4.349c6.377,0,12.18,1.74,17.393,5.217
		c5.223,3.479,7.832,7.828,7.832,13.045v134.341h26.363h48.182V194.96v-21.606V43.714C496.916,19.946,475.232,0.5,448.734,0.5z
		 M422.371,273.825V400.52c0,5.514-2.828,9.861-8.482,13.045c-5.648,3.193-12.25,4.785-19.781,4.785
		c-7.832,0-14.5-1.592-20.004-4.785c-5.508-3.184-8.26-7.531-8.26-13.045V273.825h-87.4v47.561c0,34.495-9.283,59.722-27.832,75.659
		c-18.554,15.947-43.338,23.916-74.354,23.916c-31.026,0-55.738-7.969-74.141-23.916c-18.413-15.938-27.614-41.164-27.614-75.659
		v-47.561H63.268H15.084v43.212v21.605v129.646c0,23.766,21.684,43.212,48.184,43.212h385.466c26.498,0,48.182-19.446,48.182-43.212
		V338.643v-21.605v-43.212h-48.182H422.371z M131.032,321.386c0,33.336,15.074,50.006,45.226,50.006
		c30.438,0,45.658-16.67,45.658-50.006v-47.561h-90.884V321.386z"></path></g></svg>