<?xml version="1.0" encoding="iso-8859-1"?>
<!DOCTYPE svg PUBLIC "-//W3C//DTD SVG 1.1//EN" "http://www.w3.org/Graphics/SVG/1.1/DTD/svg11.dtd">
<svg 
 version="1.1" xmlns="http://www.w3.org/2000/svg" xmlns:xlink="http://www.w3.org/1999/xlink" x="0px" y="0px" width="512px"
	 height="512px" viewBox="0 0 512 512" style="enable-background:new 0 0 512 512;" xml:space="preserve"
><g fill="#383838" id="afcae5a789ccd549f9c6e2a2f809f84d"><g></g><path style="display: inline;" d="M355.055,240.649c52.552,11.232,89.457,24.84,110.695,40.812
		c30.494,22.715,45.75,52.173,45.75,88.362c0,38.191-16.749,69.771-50.243,94.729c-41.119,30.203-100.894,45.305-179.318,45.305H0.5
		v-13.854c25.594,0,42.954-2.184,52.082-6.552c9.12-4.364,15.522-10.047,19.195-17.036c3.678-6.985,5.517-24.209,5.517-51.67V91.256
		c0-27.458-1.839-44.743-5.517-51.857c-3.673-7.114-10.146-12.789-19.399-17.036c-9.261-4.243-26.555-6.365-51.878-6.365V2.144
		h265.505c63.452,0,108.383,5.184,134.8,15.538c26.409,10.359,47.239,25.835,62.495,46.429
		c15.251,20.593,22.873,42.496,22.873,65.71c0,24.467-9.664,46.241-29.001,65.337C437.835,214.252,403.8,229.416,355.055,240.649z
		 M206.369,259.744v162.873l-0.408,18.721c0,13.479,3.74,23.65,11.232,30.516c7.488,6.868,18.588,10.296,33.29,10.296
		c21.787,0,41.873-4.431,60.253-13.292c18.38-8.856,32.475-21.716,42.275-38.564c9.802-16.85,14.707-35.629,14.707-56.351
		c0-23.714-5.991-44.988-17.977-63.839c-11.985-18.846-28.456-32.013-49.424-39.501
		C279.347,263.114,248.033,259.499,206.369,259.744z M206.369,230.54c38.665,0,67.196-3.99,85.576-11.981
		c18.384-7.988,32.475-19.221,42.28-33.698c9.802-14.474,14.702-32.949,14.702-55.414s-4.838-40.87-14.498-55.227
		c-9.669-14.354-23.489-25.273-41.461-32.762c-17.973-7.489-46.84-11.104-86.599-10.858V230.54z"></path></g></svg>