<?xml version="1.0" encoding="iso-8859-1"?>
<!DOCTYPE svg PUBLIC "-//W3C//DTD SVG 1.1//EN" "http://www.w3.org/Graphics/SVG/1.1/DTD/svg11.dtd">
<svg 
 version="1.1" xmlns="http://www.w3.org/2000/svg" xmlns:xlink="http://www.w3.org/1999/xlink" x="0px" y="0px" width="512px"
	 height="512px" viewBox="0 0 512 512" style="enable-background:new 0 0 512 512;" xml:space="preserve"
><g fill="#383838" id="afcae5a789ccd549f9c6e2a2f80fdbca"><g></g><path style="display: inline;" d="M233.783,44.935C233.783,20.396,243.728,0.5,256,0.5c12.272,0,22.218,19.896,22.218,44.435
		S268.272,89.37,256,89.37C243.728,89.37,233.783,69.474,233.783,44.935z M256,422.63c-12.272,0-22.217,19.896-22.217,44.436
		S243.728,511.5,256,511.5c12.272,0,22.218-19.896,22.218-44.435S268.272,422.63,256,422.63z M256,122.696
		c-73.504,0-133.305,59.8-133.305,133.304S182.496,389.305,256,389.305S389.305,329.504,389.305,256S329.504,122.696,256,122.696z
		 M89.369,267.109c0-12.272-19.895-22.218-44.434-22.218S0.5,254.837,0.5,267.109c0,12.271,19.896,22.218,44.435,22.218
		S89.369,279.38,89.369,267.109z M467.065,244.892c-24.539,0-44.436,9.945-44.436,22.218c0,12.271,19.896,22.218,44.436,22.218
		s44.435-9.947,44.435-22.218C511.5,254.837,491.604,244.892,467.065,244.892z M91.044,400.644
		c-17.353,17.353-24.388,38.455-15.708,47.13c8.674,8.677,29.777,1.644,47.129-15.708c17.349-17.354,24.388-38.452,15.708-47.131
		C129.5,376.257,108.398,383.294,91.044,400.644z M420.956,133.575c17.353-17.354,24.387-38.456,15.708-47.129
		c-8.675-8.679-29.777-1.645-47.13,15.708c-17.348,17.354-24.387,38.455-15.709,47.13
		C382.504,157.961,403.602,150.927,420.956,133.575z M373.825,391.578c-8.678,8.679-1.639,29.776,15.709,47.129
		c17.353,17.354,38.455,24.388,47.13,15.708c8.679-8.673,1.645-29.774-15.708-47.129C403.602,389.938,382.5,382.899,373.825,391.578
		z M138.174,155.926c8.679-8.674,1.64-29.776-15.708-47.129C105.113,91.444,84.01,84.41,75.336,93.088
		c-8.679,8.674-1.645,29.777,15.708,47.13C108.398,157.571,129.496,164.605,138.174,155.926z"></path></g></svg>