<?xml version="1.0" encoding="iso-8859-1"?>
<!DOCTYPE svg PUBLIC "-//W3C//DTD SVG 1.1//EN" "http://www.w3.org/Graphics/SVG/1.1/DTD/svg11.dtd">
<svg 
 version="1.1" xmlns="http://www.w3.org/2000/svg" xmlns:xlink="http://www.w3.org/1999/xlink" x="0px" y="0px" width="512px"
	 height="512px" viewBox="0 0 512 512" style="enable-background:new 0 0 512 512;" xml:space="preserve"
><g fill="#54c242" id="afcae5a789ccd549f9c6e2a2f810751b"><g></g><path style="display: inline;" d="M351.813,277.292c0,52.912-42.891,95.813-95.813,95.813c-52.914,0-95.813-42.9-95.813-95.813
		c0-52.914,42.899-95.813,95.813-95.813C308.922,181.479,351.813,224.378,351.813,277.292z M511.5,106.958v340.667H0.5V106.958
		h42.583h127.75H256V85.667c0-11.76,9.535-21.292,21.292-21.292h127.75c11.76,0,21.291,9.531,21.291,21.292v21.292H511.5z
		 M383.75,277.292c0-70.554-57.192-127.75-127.75-127.75c-70.553,0-127.75,57.197-127.75,127.75
		c0,70.553,57.197,127.75,127.75,127.75C326.558,405.042,383.75,347.845,383.75,277.292z"></path></g></svg>