<?xml version="1.0" encoding="iso-8859-1"?>
<!DOCTYPE svg PUBLIC "-//W3C//DTD SVG 1.1//EN" "http://www.w3.org/Graphics/SVG/1.1/DTD/svg11.dtd">
<svg 
 version="1.1" xmlns="http://www.w3.org/2000/svg" xmlns:xlink="http://www.w3.org/1999/xlink" x="0px" y="0px" width="512px"
	 height="512px" viewBox="0 0 512 512" enable-background="new 0 0 512 512" xml:space="preserve"
><g fill="#383838" id="e6c6b53d3c8160b22dad35a0f70afdb8"><g></g><path display="inline" d="M468.917,199.502H128.25c-23.421,0-42.583,19.162-42.583,42.583v198.724
		c0,23.421,19.163,42.584,42.583,42.584h340.667c23.421,0,42.583-19.163,42.583-42.584V242.085
		C511.5,218.664,492.338,199.502,468.917,199.502z M477.434,440.809c0,4.616-3.9,8.517-8.517,8.517H128.25
		c-4.616,0-8.517-3.9-8.517-8.517V323.705h357.701V440.809z M477.434,270.476H119.733v-28.391c0-4.616,3.901-8.517,8.517-8.517
		h340.667c4.616,0,8.517,3.901,8.517,8.517V270.476z M334.068,394.679H156.64v-35.489h177.428V394.679z M440.526,394.679h-53.229
		v-35.489h53.229V394.679z M128.25,178.21c-35.223,0-63.875,28.654-63.875,63.875v71.785l-28.852-5.207
		c-23.051-4.158-38.508-26.423-34.345-49.47L36.467,63.628c4.159-23.049,26.419-38.504,49.466-34.343l335.253,60.496
		c23.051,4.159,38.504,26.419,34.345,49.468l-7.032,38.961H128.25z"></path></g></svg>