<?xml version="1.0" encoding="iso-8859-1"?>
<!DOCTYPE svg PUBLIC "-//W3C//DTD SVG 1.1//EN" "http://www.w3.org/Graphics/SVG/1.1/DTD/svg11.dtd">
<svg 
 version="1.1" xmlns="http://www.w3.org/2000/svg" xmlns:xlink="http://www.w3.org/1999/xlink" x="0px" y="0px" width="512px"
	 height="512px" viewBox="0 0 512 512" style="enable-background:new 0 0 512 512;" xml:space="preserve"
><g fill="#383838" id="afcae5a789ccd549f9c6e2a2f8127c53"><g></g><path style="display: inline;  clip-rule: evenodd;" d="M280.148,281.567L177.167,384.549l-5.325,60.365
		l-35.512,35.514l-23.97-59.479c0,0-10.881,9.905-21.834,15.765c-7.436,3.98-18.115,2.878-18.115,2.878H72.41
		c0,0-1.102-10.679,2.875-18.114c5.859-10.949,15.763-21.832,15.763-21.832l-59.479-23.97l35.514-35.51l60.37-5.331l102.981-102.978
		c0,0,4.905-8.7,2.819-18.676c-1.9-9.066-10.81-19.5-10.81-19.5L0.5,127.984l44.386-44.388L354.719,95.14
		c0,0,52.423-53.961,97.851-81.324c28.735-17.308,58.397-12.783,58.397-12.783l0,0c0,0,4.521,29.667-12.778,58.394
		c-27.363,45.432-81.324,97.854-81.324,97.854l11.544,309.826L384.02,511.5l-65.696-221.944c0,0-10.434-8.903-19.499-10.813
		C288.848,276.66,280.148,281.567,280.148,281.567z"></path></g></svg>