<?xml version="1.0" encoding="iso-8859-1"?>
<!DOCTYPE svg PUBLIC "-//W3C//DTD SVG 1.1//EN" "http://www.w3.org/Graphics/SVG/1.1/DTD/svg11.dtd">
<svg 
 version="1.1" xmlns="http://www.w3.org/2000/svg" xmlns:xlink="http://www.w3.org/1999/xlink" x="0px" y="0px" width="512px"
	 height="512px" viewBox="0 0 512 512" style="enable-background:new 0 0 512 512;" xml:space="preserve"
><g fill="#383838" id="afcae5a789ccd549f9c6e2a2f812f4e6"><g></g><path style="display: inline;  clip-rule: evenodd;" d="M354.726,98.831V0.5h137.269v98.331H354.726z
		 M354.726,138.164v144.484c0,0,0.087,33.853-37.314,70.281C296.397,373.389,256,375.346,256,375.346s-40.397-1.957-61.411-22.417
		c-37.402-36.429-37.314-70.281-37.314-70.281V138.164H20.006v164.775c0,0-0.103,93.292,80.083,160.064
		C161.438,514.079,256,511.478,256,511.478s94.562,2.602,155.911-48.475c80.186-66.772,80.083-160.064,80.083-160.064V138.164
		H354.726z M157.275,98.831V0.5H20.006v98.331H157.275z"></path></g></svg>