<?xml version="1.0" encoding="iso-8859-1"?>
<!DOCTYPE svg PUBLIC "-//W3C//DTD SVG 1.1//EN" "http://www.w3.org/Graphics/SVG/1.1/DTD/svg11.dtd">
<svg 
 version="1.1" xmlns="http://www.w3.org/2000/svg" xmlns:xlink="http://www.w3.org/1999/xlink" x="0px" y="0px" width="512px"
	 height="512px" viewBox="0 0 512 512" style="enable-background:new 0 0 512 512;" xml:space="preserve"
><g fill="#ffffff" id="de95281e9f52527e65bb740c5900e2e8"><g></g><path style="display: inline;  clip-rule: evenodd;" d="M268.392,0.551c-23.008,0-41.599,18.643-41.599,41.65
		c0,22.905,18.591,41.599,41.599,41.599s41.702-18.694,41.702-41.599C310.094,19.194,291.399,0.551,268.392,0.551z M147.292,32.136
		c-21.673,0-39.339,17.615-39.339,39.288c0,21.724,17.667,39.339,39.339,39.339c21.775,0,39.339-17.616,39.339-39.339
		C186.632,49.751,169.067,32.136,147.292,32.136z M64.608,118.21c-19.824,0-35.847,16.126-35.847,35.898
		c0,19.824,16.023,35.898,35.847,35.898s35.847-16.075,35.847-35.898C100.455,134.336,84.432,118.21,64.608,118.21z M66.046,266.066
		c0-18.232-14.791-33.023-33.074-33.023c-18.18,0-32.971,14.791-32.971,33.023c0,18.231,14.791,33.021,32.971,33.021
		C51.255,299.088,66.046,284.298,66.046,266.066z M66.046,350.702c-15.818,0-28.657,12.941-28.657,28.76
		c0,15.817,12.839,28.76,28.657,28.76s28.657-12.942,28.657-28.76C94.703,363.644,81.864,350.702,66.046,350.702z M150.785,434.003
		c-13.558,0-24.549,10.99-24.549,24.343c0,13.455,10.991,24.446,24.549,24.446c13.353,0,24.343-10.991,24.343-24.446
		C175.128,444.993,164.137,434.003,150.785,434.003z M266.954,465.536c-12.634,0-22.906,10.271-22.906,23.008
		c0,12.634,10.272,22.904,22.906,22.904c12.736,0,23.008-10.271,23.008-22.904C289.962,475.807,279.69,465.536,266.954,465.536z
		 M383.226,439.755c-10.374,0-18.694,8.319-18.694,18.591c0,10.374,8.32,18.694,18.694,18.694c10.271,0,18.693-8.32,18.693-18.694
		C401.919,448.074,393.497,439.755,383.226,439.755z M466.526,362.206c-8.73,0-15.818,7.087-15.818,15.817
		s7.088,15.716,15.818,15.716s15.715-6.985,15.715-15.716S475.257,362.206,466.526,362.206z M498.06,253.175
		c-7.19,0-12.84,5.752-12.84,12.891c0,7.138,5.649,12.941,12.84,12.941c7.087,0,12.941-5.804,12.941-12.941
		C511.001,258.928,505.146,253.175,498.06,253.175z M466.526,164.174c5.443,0,10.065-4.519,10.065-10.066
		c0-5.546-4.622-10.066-10.065-10.066c-5.649,0-10.066,4.52-10.066,10.066C456.46,159.655,460.877,164.174,466.526,164.174z
		 M378.911,78.049c3.185,0,5.752-2.568,5.752-5.752c0-3.133-2.567-5.752-5.752-5.752c-3.184,0-5.752,2.619-5.752,5.752
		C373.159,75.481,375.728,78.049,378.911,78.049z"></path></g></svg>