<?xml version="1.0" encoding="iso-8859-1"?>
<!DOCTYPE svg PUBLIC "-//W3C//DTD SVG 1.1//EN" "http://www.w3.org/Graphics/SVG/1.1/DTD/svg11.dtd">
<svg 
 version="1.1" xmlns="http://www.w3.org/2000/svg" xmlns:xlink="http://www.w3.org/1999/xlink" x="0px" y="0px" width="512px"
	 height="512px" viewBox="0 0 512 512" style="enable-background:new 0 0 512 512;" xml:space="preserve"
><g fill="#383838" id="afcae5a789ccd549f9c6e2a2f81091e8"><g></g><path style="display: inline;" d="M0.5,32.859v446.281h511V32.859H0.5z M468.917,436.558H43.083V75.443h425.833V436.558z
		 M318.777,393.974H85.667v-179.29c5.943-0.451,11.935-0.741,18.002-0.741c1.1,0,2.194,0.021,3.29,0.036v-14.725
		c-12.396-7.314-21.292-26.968-21.292-50.135c0-29.397,14.297-53.229,31.938-53.229s31.938,23.832,31.938,53.229
		c0,23.167-8.895,42.82-21.292,50.135v15.968c21.324,2.213,41.705,7.272,60.681,14.754v-12.131
		c-10.845-6.398-18.63-23.595-18.63-43.867c0-25.721,12.509-46.576,27.945-46.576c15.437,0,27.945,20.855,27.945,46.576
		c0,20.272-7.785,37.469-18.63,43.867v20.482C268.956,269.271,312.165,326.781,318.777,393.974z M339.969,391.891
		c-3.551-36.104-16.269-69.364-35.888-97.972c28.997-23.263,66.936-37.393,108.509-37.393c4.632,0,9.207,0.224,13.743,0.564v136.883
		h-86.16L339.969,391.891z M341.167,159.766c0-23.517,19.063-42.583,42.583-42.583s42.583,19.066,42.583,42.583
		c0,23.516-19.063,42.583-42.583,42.583S341.167,183.282,341.167,159.766z"></path></g></svg>