<?xml version="1.0" encoding="iso-8859-1"?>
<!DOCTYPE svg PUBLIC "-//W3C//DTD SVG 1.1//EN" "http://www.w3.org/Graphics/SVG/1.1/DTD/svg11.dtd">
<svg 
 version="1.1" xmlns="http://www.w3.org/2000/svg" xmlns:xlink="http://www.w3.org/1999/xlink" x="0px" y="0px" width="512px"
	 height="512px" viewBox="0 0 512 512" style="enable-background:new 0 0 512 512;" xml:space="preserve"
><g fill="#383838" id="afcae5a789ccd549f9c6e2a2f80af7b4"><g></g><path style="display: inline;" d="M511.5,361.823v128.385H0.5V326.039c41.248-17.429,88.092-37.335,91.908-39.051v-22.087
		c-0.429-1.73-1.148-4.441-2.128-8.067c-1.011-3.626-2.031-7.296-3.147-11.047c-1.291-4.357-2.854-9.089-4.605-14.154
		c-6.359-11.859-11.424-25.283-15.154-40.335c-3.732-15.048-5.618-31.035-5.618-47.941c0-22.199,2.377-40.98,7.089-56.342
		c4.74-15.385,11.161-27.892,19.302-37.542c8.106-9.67,17.603-16.717,28.494-21.094c10.857-4.419,22.543-6.587,35.071-6.587
		c12.307,0,23.876,2.104,34.746,6.421c10.883,4.293,20.427,11.192,28.661,20.738c8.246,9.568,14.706,22.075,19.447,37.582
		c4.742,15.447,7.088,34.438,7.088,56.823c0,16.488-1.813,32.099-5.439,46.941c-3.628,14.841-8.631,28.161-14.989,40.063
		c-1.751,5.442-3.418,10.611-4.928,15.427c-1.325,4.211-2.543,8.213-3.626,12.006c-1.117,3.896-1.647,6.712-1.647,8.443v23.045
		c6.003,2.62,74.694,32.379,100.032,43.269c11.048-4.698,18.81-8.017,20.14-8.615v-18.067c-0.351-1.416-0.936-3.635-1.739-6.602
		c-0.823-2.968-1.663-5.97-2.574-9.038c-1.06-3.567-2.337-7.436-3.771-11.58c-5.199-9.703-9.345-20.686-12.396-33.002
		c-3.054-12.312-4.597-25.392-4.597-39.226c0-18.162,1.947-33.53,5.798-46.098c3.88-12.588,9.131-22.819,15.794-30.717
		c6.633-7.911,14.405-13.677,23.313-17.258c8.883-3.615,18.447-5.39,28.694-5.39c10.071,0,19.536,1.723,28.428,5.255
		c8.908,3.512,16.717,9.157,23.454,16.967c6.745,7.828,12.03,18.063,15.91,30.75c3.88,12.638,5.797,28.174,5.797,46.49
		c0,13.491-1.479,26.264-4.449,38.406c-2.97,12.144-7.062,23.042-12.264,32.779c-1.435,4.452-2.798,8.682-4.03,12.622
		c-1.084,3.444-2.083,6.72-2.969,9.821c-0.914,3.189-1.347,5.491-1.347,6.91v18.854C433.27,328.006,492.018,353.455,511.5,361.823z"></path></g></svg>