<?xml version="1.0" encoding="iso-8859-1"?>
<!DOCTYPE svg PUBLIC "-//W3C//DTD SVG 1.1//EN" "http://www.w3.org/Graphics/SVG/1.1/DTD/svg11.dtd">
<svg 
 version="1.1" xmlns="http://www.w3.org/2000/svg" xmlns:xlink="http://www.w3.org/1999/xlink" x="0px" y="0px" width="512px"
	 height="512px" viewBox="0 0 512 512" style="enable-background:new 0 0 512 512;" xml:space="preserve"
><g fill="#8d74b1" id="afcae5a789ccd549f9c6e2a2f80aaeeb"><g></g><path style="display: inline; " d="M414.316,157.734c0-86.83-70.848-157.234-158.318-157.234
		c-87.429,0-158.314,70.404-158.314,157.234c0,28.671,7.905,55.467,21.375,78.611h-0.193L255.999,511.5l137.214-275.155H393
		C406.545,213.201,414.316,186.405,414.316,157.734 M256.057,236.328c-43.732,0-79.156-35.2-79.156-78.615
		c0-43.394,35.424-78.615,79.156-78.615c43.697,0,79.158,35.221,79.158,78.615C335.215,201.128,299.754,236.328,256.057,236.328"></path></g></svg>