<?xml version="1.0" encoding="iso-8859-1"?>
<!DOCTYPE svg PUBLIC "-//W3C//DTD SVG 1.1//EN" "http://www.w3.org/Graphics/SVG/1.1/DTD/svg11.dtd">
<svg 
 version="1.1" xmlns="http://www.w3.org/2000/svg" xmlns:xlink="http://www.w3.org/1999/xlink" x="0px" y="0px" width="512px"
	 height="512px" viewBox="0 0 512 512" style="enable-background:new 0 0 512 512;" xml:space="preserve"
><g fill="#ffffff" id="afcae5a789ccd549f9c6e2a2f818ed67"><g></g><path style="display: inline;" d="M305.611,301.911c0,19.021-15.42,34.437-34.433,34.437c-19.021,0-34.437-15.415-34.437-34.437
		c0-19.013,15.415-34.433,34.437-34.433C290.191,267.479,305.611,282.898,305.611,301.911z M190.832,359.303
		c-12.68,0-22.959,10.28-22.959,22.96c0,12.675,10.28,22.955,22.959,22.955c12.679,0,22.955-10.28,22.955-22.955
		C213.787,369.583,203.511,359.303,190.832,359.303z M317.089,382.263c-19.017,0-34.433,15.415-34.433,34.433
		c0,19.017,15.416,34.433,34.433,34.433s34.433-15.416,34.433-34.433C351.521,397.678,336.105,382.263,317.089,382.263z
		 M507.924,480.653c6.063-11.037,4.362-25.521-4.666-39.747L332.696,197.759V78.823c12.754-4.521,21.911-16.707,21.911-30.992
		c0-18.125-14.742-32.869-32.869-32.869H190.262c-18.123,0-32.869,14.744-32.869,32.869c0,14.285,9.157,26.471,21.916,30.992
		v118.936L9.025,440.481l-0.283,0.425c-9.028,14.226-10.729,28.71-4.666,39.747c5.813,10.566,17.458,16.385,32.794,16.385h438.256
		C490.467,497.038,502.11,491.22,507.924,480.653z M201.22,204.679V58.787h-10.958c-6.038,0-10.953-4.915-10.953-10.956
		c0-6.042,4.915-10.956,10.953-10.956h131.477c6.038,0,10.958,4.913,10.958,10.956c0,6.041-4.92,10.956-10.958,10.956H310.78
		v145.892L484.882,452.85c4.383,6.986,5.854,13.581,3.838,17.249c-1.759,3.194-6.712,5.032-13.594,5.032H36.87
		c-6.878,0-11.831-1.838-13.59-5.032c-2.017-3.668-0.545-10.263,3.838-17.249L201.22,204.679z"></path></g></svg>