<?xml version="1.0" encoding="iso-8859-1"?>
<!DOCTYPE svg PUBLIC "-//W3C//DTD SVG 1.1//EN" "http://www.w3.org/Graphics/SVG/1.1/DTD/svg11.dtd">
<svg 
 version="1.1" xmlns="http://www.w3.org/2000/svg" xmlns:xlink="http://www.w3.org/1999/xlink" x="0px" y="0px" width="512px"
	 height="512px" viewBox="0 0 512 512" enable-background="new 0 0 512 512" xml:space="preserve"
><g fill="#ffffff" id="e6c6b53d3c8160b22dad35a0f70b8f5e"><g></g><path display="inline" d="M468.917,0.5c-141.943,0-283.889,0-425.833,0c42.583,170.333-42.583,340.667,0,511
		c141.945,0,283.89,0,425.833,0C426.333,341.167,511.5,170.833,468.917,0.5z M426.662,250.719
		c-8.862,70.902-17.97,143.76-8.82,218.198H77.959c-10.185-67.127-1.618-135.664,7.379-207.636
		c8.862-70.903,17.969-143.76,8.818-218.198h339.887C444.228,110.21,435.656,178.745,426.662,250.719z M274.068,84.931
		c6.222,9.98,3.174,23.113-6.807,29.332l-86.381,53.828c-3.414,2.127-7.321,3.221-11.261,3.221c-2.034,0-4.073-0.291-6.061-0.882
		c-5.843-1.734-10.661-5.888-13.237-11.413l-20.077-43.062c-4.97-10.656-0.358-23.325,10.301-28.294
		c10.667-4.965,23.327-0.355,28.294,10.301l9.92,21.275l65.979-41.115C254.717,71.898,267.852,74.95,274.068,84.931z
		 M298.583,122.867h85.167v42.583h-85.167V122.867z M274.068,218.066c6.222,9.98,3.174,23.113-6.807,29.33l-86.381,53.828
		c-3.414,2.13-7.321,3.224-11.261,3.224c-2.034,0-4.073-0.292-6.061-0.882c-5.843-1.734-10.661-5.889-13.237-11.415l-20.077-43.066
		c-4.97-10.654-0.358-23.325,10.301-28.29c10.667-4.986,23.327-0.358,28.294,10.301l9.92,21.279l65.979-41.116
		C254.717,205.033,267.852,208.085,274.068,218.066z M298.583,256h85.167v42.583h-85.167V256z M274.068,351.197
		c6.222,9.98,3.174,23.113-6.807,29.33l-86.381,53.828c-3.414,2.129-7.321,3.223-11.261,3.223c-2.034,0-4.073-0.291-6.061-0.882
		c-5.843-1.734-10.661-5.889-13.237-11.411l-20.077-43.062c-4.97-10.658-0.358-23.325,10.301-28.295
		c10.667-4.985,23.327-0.357,28.294,10.297l9.92,21.279l65.979-41.115C254.717,338.168,267.852,341.221,274.068,351.197z
		 M298.583,389.131h85.167v42.584h-85.167V389.131z"></path></g></svg>