<?xml version="1.0" encoding="iso-8859-1"?>
<!DOCTYPE svg PUBLIC "-//W3C//DTD SVG 1.1//EN" "http://www.w3.org/Graphics/SVG/1.1/DTD/svg11.dtd">
<svg 
 version="1.1" xmlns="http://www.w3.org/2000/svg" xmlns:xlink="http://www.w3.org/1999/xlink" x="0px" y="0px" width="512px"
	 height="512px" viewBox="0 0 512 512" enable-background="new 0 0 512 512" xml:space="preserve"
><g fill="#383838" id="5151e0c8492e5103c096af88a52363f8"><g></g><path display="inline" d="M172.683,34.56c0-18.811,37.304-34.06,83.317-34.06s83.316,15.249,83.316,34.06
		S302.014,68.623,256,68.623S172.683,53.371,172.683,34.56z M256,194.902c46.014,0,83.316-15.252,83.316-34.063V56.041
		c0,18.815-37.303,26.464-83.316,26.464s-83.317-7.649-83.317-26.464v104.798C172.683,179.649,209.986,194.902,256,194.902z
		 M492.061,330.431c0,68.878-50.767,128.693-125.315,158.942V511.5H145.263v-22.127C70.714,459.124,19.939,399.309,19.939,330.431
		c0-69.674,51.974-130.051,127.938-159.957c10.932,28.079,52.284,46.646,108.122,46.646c55.847,0,97.199-18.568,108.13-46.646
		C440.095,200.38,492.061,260.757,492.061,330.431z M103.256,345.6c0-33.808,12.281-66.295,34.822-94.252
		c-1.198-0.817-2.506-1.551-3.663-2.402c-37.052,23.493-58.931,56.513-58.931,91.247c0,33.063,20.018,64.716,54.061,87.991
		C112.562,403.114,103.256,374.919,103.256,345.6z M408.743,344.87c0-30.677-49.727-55.544-111.081-55.544
		c-61.354,0-111.089,24.867-111.089,55.544c0,30.673,49.735,55.541,111.089,55.541C359.017,400.411,408.743,375.543,408.743,344.87z
		"></path></g></svg>