<?xml version="1.0" encoding="iso-8859-1"?>
<!DOCTYPE svg PUBLIC "-//W3C//DTD SVG 1.1//EN" "http://www.w3.org/Graphics/SVG/1.1/DTD/svg11.dtd">
<svg 
 version="1.1" xmlns="http://www.w3.org/2000/svg" xmlns:xlink="http://www.w3.org/1999/xlink" x="0px" y="0px" width="512px"
	 height="512px" viewBox="0 0 512 512" style="enable-background:new 0 0 512 512;" xml:space="preserve"
><g fill="#383838" id="afcae5a789ccd549f9c6e2a2f80a65f5"><g></g><path style="display: inline;" d="M59.217,125.039c-11.073-15.277-19.047-25.875-23.914-31.794
		c-4.872-5.919-11.699-10.979-20.482-15.186C6.229,72.907,1.929,66.698,1.929,59.441c0-7.827,5.444-11.743,16.329-11.743h85.643
		c10.888,0,16.327,3.916,16.327,11.743c0,4.582-2.914,9.312-8.734,14.178c-5.828,4.867-8.739,9.505-8.739,13.898
		c0,5.92,4.439,14.941,13.321,27.065c8.879,12.124,17.71,23.017,26.496,32.649c8.78,9.652,19.765,21.44,32.941,35.38
		c44.493-47.931,66.737-79.634,66.737-95.094c0-3.051-1.007-5.594-3.006-7.592c-2.009-2.009-4.872-4.104-8.594-6.306
		c-3.728-2.192-6.449-4.241-8.162-6.159c-1.719-1.907-2.583-4.582-2.583-8.02c0-7.827,6.306-11.743,18.907-11.743h66.737
		c11.844,0,17.764,3.916,17.764,11.743c0,6.113-3.916,11.173-11.747,15.19c-12.988,8.009-22.723,16.99-29.217,26.917L197.853,207.24
		l81.917,96.238c15.084,20.626,27.213,35.044,36.382,43.257c4.577,4.582,12.408,8.879,23.484,12.887
		c8.595,3.824,12.887,9.357,12.887,16.619c0,10.12-6.586,15.175-19.762,15.175h-88.224c-11.646,0-17.463-4.673-17.463-14.03
		c0-3.438,1.475-6.738,4.435-9.882c2.959-3.152,5.874-6.306,8.732-9.459c2.873-3.143,4.297-6.534,4.297-10.165
		c0-7.258-23.77-36.946-71.319-89.083l-12.887-12.887c-46.217,49.462-69.32,81.917-69.32,97.388c0,4.582,1.096,8.065,3.295,10.455
		c2.192,2.386,5.487,4.872,9.881,7.445c4.391,2.573,7.778,5.015,10.168,7.303c2.385,2.294,3.58,5.64,3.58,10.028
		c0,8.59-6.685,12.887-20.049,12.887h-81.92c-5.922,0-9.982-0.859-12.172-2.573c-2.2-1.724-3.295-5.919-3.295-12.602
		c0-7.262,4.391-12.322,13.176-15.18c10.692-5.737,17.474-9.836,20.334-12.322c2.868-2.482,7.351-8.208,13.464-17.185
		l90.512-110.273L59.217,125.039z M511.5,429.074v35.228H378.561c1.438-13.314,5.757-25.937,12.957-37.856
		c7.196-11.921,21.41-27.736,42.647-47.442c17.098-15.923,27.573-26.72,31.448-32.39c5.218-7.826,7.827-15.566,7.827-23.215
		c0-8.452-2.273-14.957-6.82-19.498c-4.541-4.547-10.816-6.82-18.826-6.82c-7.913,0-14.219,2.386-18.893,7.156
		c-4.679,4.77-7.379,12.688-8.101,23.754l-37.786-3.778c2.248-20.876,9.312-35.858,21.187-44.946
		c11.88-9.088,26.725-13.629,44.539-13.629c19.522,0,34.866,5.264,46.023,15.791s16.736,23.617,16.736,39.275
		c0,8.904-1.602,17.387-4.796,25.438c-3.193,8.055-8.254,16.492-15.18,25.305c-4.593,5.854-12.872,14.266-24.833,25.239
		c-11.971,10.979-19.548,18.268-22.742,21.863c-3.193,3.601-5.782,7.109-7.76,10.526H511.5z"></path></g></svg>