<?xml version="1.0" encoding="iso-8859-1"?>
<!DOCTYPE svg PUBLIC "-//W3C//DTD SVG 1.1//EN" "http://www.w3.org/Graphics/SVG/1.1/DTD/svg11.dtd">
<svg 
 version="1.1" xmlns="http://www.w3.org/2000/svg" xmlns:xlink="http://www.w3.org/1999/xlink" x="0px" y="0px" width="512px"
	 height="512px" viewBox="0 0 512 512" enable-background="new 0 0 512 512" xml:space="preserve"
><g fill="#ffffff" id="e6c6b53d3c8160b22dad35a0f70b52f3"><g></g><path display="inline" d="M461.668,189.168c-7.727-23.793,15.458-63.563,1.044-83.366c-14.559-20.004-59.642-10.174-79.644-24.729
		c-19.804-14.416-24.303-60.405-48.098-68.129C312.016,5.49,281.441,39.809,256,39.809c-25.442,0-56.011-34.318-78.971-26.864
		c-23.795,7.724-28.294,53.713-48.097,68.129C108.93,95.628,63.847,85.8,49.288,105.802c-14.41,19.805,8.77,59.571,1.043,83.366
		C42.879,212.124,0.5,230.558,0.5,256c0,25.439,42.379,43.879,49.828,66.834c7.73,23.79-15.453,63.559-1.04,83.361
		c14.559,20.003,59.642,10.176,79.64,24.735c19.807,14.413,24.307,60.398,48.102,68.125c22.955,7.452,53.529-26.864,78.971-26.864
		c25.441,0,56.012,34.316,78.971,26.864c23.795-7.727,28.294-53.712,48.098-68.13c20.002-14.555,65.085-4.728,79.644-24.73
		c14.409-19.803-8.771-59.566-1.044-83.361C469.12,299.879,511.5,281.439,511.5,256C511.5,230.558,469.12,212.124,461.668,189.168z
		 M167.353,325.258l-54.394-57.799c-3.189-3.377-5.435-5.947-6.749-7.71l-0.287,0.05c1.036,3.609,2.216,9.182,3.547,16.726
		l10.08,57.163l-22.124,3.9L79.083,233.567l25.243-4.452l52.439,56.051c2.391,2.52,4.632,5.044,6.724,7.563l0.291-0.05
		c-0.815-2.35-1.851-7.082-3.102-14.188l-10.143-57.522l22.124-3.901l18.343,104.019L167.353,325.258z M214.793,316.896
		l-18.339-104.023l59.987-10.577l3.364,19.077l-36.557,6.448l4.08,23.14l34.021-5.999l3.348,19.004l-34.017,5.996l4.192,23.795
		l38.953-6.869l3.352,19.004L214.793,316.896z M405.424,283.277l-25.97,4.583l-29.03-63.691c-1.53-3.323-2.774-7.113-3.727-11.386
		l-0.291,0.05c0.399,4.818,0.458,8.822,0.175,12.014l-5.935,69.854l-27.055,4.77l-45.69-99.197l25.608-4.516l26.868,66.694
		c1.144,2.836,2.309,6.72,3.473,11.651l0.437-0.074c-0.462-3.76-0.479-7.943-0.046-12.559l6.699-72.313l25.097-4.425l29.364,66.851
		c1.081,2.454,2.295,6.077,3.639,10.876l0.291-0.05c-0.482-3.855-0.657-7.813-0.524-11.876l2.121-71.953l23.646-4.169
		L405.424,283.277z"></path></g></svg>