<?xml version="1.0" encoding="iso-8859-1"?>
<!DOCTYPE svg PUBLIC "-//W3C//DTD SVG 1.1//EN" "http://www.w3.org/Graphics/SVG/1.1/DTD/svg11.dtd">
<svg 
 version="1.1" xmlns="http://www.w3.org/2000/svg" xmlns:xlink="http://www.w3.org/1999/xlink" x="0px" y="0px" width="512px"
	 height="512px" viewBox="0 0 512 512" style="enable-background:new 0 0 512 512;" xml:space="preserve"
><g fill="#383838" id="afcae5a789ccd549f9c6e2a2f80c04c8"><g></g><path style="display: inline;  clip-rule: evenodd;" d="M410.248,33.618L409.3,0.5H256H102.699l-0.943,33.118H6.178
		c0,0,1.976,97.229,39.612,156.554c39.27,61.902,105.169,59.202,105.169,59.202s13.569,22.32,33.835,42.824
		c20.424,20.66,47.548,39.508,47.548,39.508v118.601H99.861V511.5H256h156.139v-61.193H279.656V331.706
		c0,0,27.126-18.848,47.549-39.508c20.267-20.504,33.835-42.824,33.835-42.824s65.898,2.7,105.17-59.202
		c37.64-59.325,39.612-156.554,39.612-156.554H410.248z M64.429,167.329C38.089,126.846,34.567,64.846,34.567,64.846l68.132-0.944
		c0,0,4.095,43.492,13.504,85.844c7.372,33.164,20.562,67.458,20.562,67.458S96.982,217.354,64.429,167.329z M297.637,154.585
		l9.83,57.304L256,184.837l-51.467,27.052l9.83-57.304l-41.637-40.591l57.542-8.36L256,53.494l25.731,52.144l57.543,8.356
		L297.637,154.585z M447.571,167.329c-32.554,50.025-72.336,49.875-72.336,49.875s13.189-34.294,20.562-67.458
		c9.412-42.352,13.503-85.844,13.503-85.844l68.133,0.944C477.433,64.846,473.911,126.846,447.571,167.329z"></path></g></svg>