<?xml version="1.0" encoding="iso-8859-1"?>
<!DOCTYPE svg PUBLIC "-//W3C//DTD SVG 1.1//EN" "http://www.w3.org/Graphics/SVG/1.1/DTD/svg11.dtd">
<svg 
 version="1.1" xmlns="http://www.w3.org/2000/svg" xmlns:xlink="http://www.w3.org/1999/xlink" x="0px" y="0px" width="512px"
	 height="512px" viewBox="0 0 512 512" style="enable-background:new 0 0 512 512;" xml:space="preserve"
><g fill="#383838" id="afcae5a789ccd549f9c6e2a2f8140cc1"><g></g><path style="display: inline;  clip-rule: evenodd;" d="M293.14,37.634c0,20.512-16.629,37.138-37.141,37.138
		s-37.134-16.626-37.134-37.138c0-20.505,16.623-37.134,37.134-37.134S293.14,17.129,293.14,37.634z M360.539,248.545
		l-51.086-142.982c0,0-4.784-8.287-11.233-13.188c-6.415-4.874-14.503-6.363-14.503-6.363h-55.43c0,0-8.094,1.49-14.509,6.363
		c-6.449,4.901-11.226,13.188-11.226,13.188l-51.093,142.982c0,0-5.885,14.217,10.338,19.169
		c12.052,3.683,19.225-8.731,19.225-8.731l43.054-109.375l-48.25,201.674l34.395,14.847l0.496,129.175
		c0,0-0.11,16.196,19.995,16.196c22.246,0,20.34-16.196,20.34-16.196l-1.012-130.296l5.961,0.089l5.961-0.089l-1.013,130.296
		c0,0-1.899,16.196,20.347,16.196c20.099,0,19.988-16.196,19.988-16.196l0.496-129.175l34.395-14.847l-48.25-201.674l43.054,109.375
		c0,0,7.172,12.414,19.231,8.731C366.431,262.763,360.539,248.545,360.539,248.545z"></path></g></svg>