<?xml version="1.0" encoding="iso-8859-1"?>
<!DOCTYPE svg PUBLIC "-//W3C//DTD SVG 1.1//EN" "http://www.w3.org/Graphics/SVG/1.1/DTD/svg11.dtd">
<svg 
 version="1.1" xmlns="http://www.w3.org/2000/svg" xmlns:xlink="http://www.w3.org/1999/xlink" x="0px" y="0px" width="512px"
	 height="512px" viewBox="0 0 512 512" enable-background="new 0 0 512 512" xml:space="preserve"
><g fill="#383838" id="3e91140ac1bfb9903b91c1b0ca0204f3"><g></g><path display="inline" d="M509.328,414.139c-1.347,13.798-10.865,16.673-21.144,6.395l-51.552-51.552
		c-10.282-10.282-28.852-14.183-41.262-8.671l-3.388,1.503c-12.41,5.516-26.766,20.334-31.896,32.926l-1.111,2.734
		c-5.131,12.6-0.921,31.313,9.365,41.597l50.788,50.792c10.282,10.282,7.407,19.8-6.387,21.151c0,0-69.465,6.783-106.541-30.298
		c-34.536-34.528-42.79-85.585-25.154-129.139L159.744,230.276c-43.063,16.473-92.975,7.93-126.922-26.018
		C-4.109,167.331,2.672,97.857,2.672,97.857c1.341-13.798,10.861-16.671,21.139-6.395l51.554,51.554
		c10.282,10.283,28.85,14.185,41.26,8.671l3.387-1.504c12.412-5.515,26.766-20.331,31.898-32.927l1.109-2.731
		c5.131-12.6,0.921-31.316-9.361-41.598L92.867,22.136C82.585,11.854,85.462,2.335,99.256,0.987c0,0,69.465-6.786,106.544,30.293
		c33.947,33.947,42.491,83.862,26.018,126.922l122.66,122.662c42.546-15.343,91.339-6.489,124.701,26.873
		C516.107,344.67,509.328,414.139,509.328,414.139z"></path></g></svg>