<?xml version="1.0" encoding="iso-8859-1"?>
<!DOCTYPE svg PUBLIC "-//W3C//DTD SVG 1.1//EN" "http://www.w3.org/Graphics/SVG/1.1/DTD/svg11.dtd">
<svg 
 version="1.1" xmlns="http://www.w3.org/2000/svg" xmlns:xlink="http://www.w3.org/1999/xlink" x="0px" y="0px" width="512px"
	 height="512px" viewBox="0 0 512 512" enable-background="new 0 0 512 512" xml:space="preserve"
><g fill="#383838" id="1b1c9b208ed950244c86edd4d202dd0b"><g></g><path display="inline" d="M511.5,305.191v145.369c0,21.808-17.84,39.647-39.647,39.647H286.836
		c-21.808,0-39.648-17.84-39.648-39.647V305.191c0-21.808,17.84-39.647,39.648-39.647h185.017
		C493.66,265.544,511.5,283.384,511.5,305.191z M352.91,239.114h52.863c21.808,0,39.647-17.84,39.647-39.647v-52.86
		c0-21.808-17.84-39.647-39.647-39.647H352.91c-21.803,0-39.643,17.84-39.643,39.647v52.86
		C313.268,221.274,331.107,239.114,352.91,239.114z M286.836,235.735h6.957c-3.568-5.795-6.296-12.153-8.06-18.892
		c-3.435-0.778-6.986-1.225-10.646-1.225H48.957c-26.652,0-48.457,21.805-48.457,48.457v177.677
		c0,26.648,21.805,48.455,48.457,48.455h180.93c-7.86-11.253-12.507-24.909-12.507-39.647V305.191
		C217.38,266.896,248.538,235.735,286.836,235.735z M129.718,183.315h64.611c26.65,0,48.455-21.806,48.455-48.457V70.249
		c0-26.652-21.805-48.457-48.455-48.457h-64.611c-26.65,0-48.455,21.805-48.455,48.457v64.609
		C81.263,161.51,103.068,183.315,129.718,183.315z"></path></g></svg>