<?xml version="1.0" encoding="iso-8859-1"?>
<!DOCTYPE svg PUBLIC "-//W3C//DTD SVG 1.1//EN" "http://www.w3.org/Graphics/SVG/1.1/DTD/svg11.dtd">
<svg 
 version="1.1" xmlns="http://www.w3.org/2000/svg" xmlns:xlink="http://www.w3.org/1999/xlink" x="0px" y="0px" width="512px"
	 height="512px" viewBox="0 0 512 512" enable-background="new 0 0 512 512" xml:space="preserve"
><g fill="#ffffff" id="b75708d097f2188dff6617b0f00cd9ee"><g></g><path display="inline" d="M321.234,303.041c16.331-17.831,39.573-28.056,63.768-28.056c21.657,0,42.384,8.062,58.36,22.7
		c30.254,27.712,36.641,72.033,16.639,106.724L511.5,451.58l-25.629,27.982l-51.508-47.183
		c-14.409,10.047-31.617,15.486-49.403,15.486c-21.657,0-42.384-8.06-58.36-22.693C291.451,392.974,289.048,338.189,321.234,303.041
		z M337.291,363.519c0.558,12.737,6.047,24.498,15.444,33.114c8.833,8.076,20.277,12.53,32.225,12.53
		c13.361,0,26.199-5.647,35.223-15.499c8.592-9.378,13.017-21.574,12.459-34.333c-0.557-12.759-6.034-24.515-15.415-33.11
		c-8.829-8.075-20.27-12.529-32.221-12.529h-0.004c-13.365,0-26.203,5.647-35.223,15.494
		C341.167,338.588,336.729,350.781,337.291,363.519z M296.113,280.032c2.637-2.878,5.414-5.598,8.296-8.187
		c-19.042-8.24-36.682-15.887-39.36-17.052V235.64c0-1.443,0.445-3.782,1.368-7.023c0.906-3.152,1.917-6.479,3.02-9.979
		c1.26-4.002,2.636-8.3,4.096-12.823c5.281-9.893,9.444-20.967,12.463-33.304c3.011-12.338,4.521-25.315,4.521-39.021
		c0-18.607-1.95-34.393-5.889-47.235c-3.946-12.889-9.314-23.286-16.172-31.239c-6.846-7.937-14.775-13.671-23.824-17.239
		c-9.032-3.588-18.651-5.339-28.881-5.339c-10.417,0-20.127,1.805-29.156,5.477c-9.053,3.639-16.946,9.496-23.683,17.535
		c-6.774,8.022-12.105,18.418-16.052,31.208c-3.909,12.769-5.888,28.382-5.888,46.833c0,14.054,1.567,27.344,4.67,39.853
		c3.102,12.511,7.311,23.67,12.6,33.528c1.452,4.213,2.753,8.145,3.826,11.767c0.927,3.117,1.775,6.169,2.62,9.184
		c0.811,3.013,1.41,5.265,1.763,6.704v18.36c-5.66,2.549-125.151,53.212-128.989,54.477c-7.489,2.757-13.586,6.898-18.343,12.492
		c-4.741,5.568-8.496,11.215-11.236,17.104C4.596,343.716,2.155,350.84,0.5,358.32v63.497h280.197
		C255.061,377.475,259.734,319.759,296.113,280.032z"></path></g></svg>