<?xml version="1.0" encoding="iso-8859-1"?>
<!DOCTYPE svg PUBLIC "-//W3C//DTD SVG 1.1//EN" "http://www.w3.org/Graphics/SVG/1.1/DTD/svg11.dtd">
<svg 
 version="1.1" xmlns="http://www.w3.org/2000/svg" xmlns:xlink="http://www.w3.org/1999/xlink" x="0px" y="0px" width="512px"
	 height="512px" viewBox="0 0 512 512" enable-background="new 0 0 512 512" xml:space="preserve"
><g fill="#383838" id="2020da7681f0d538108a21c602009ce7"><g></g><path display="inline" d="M405.043,122.925c-3.028,0-6.022,0.16-8.982,0.409C374.243,61.106,315.029,16.469,245.355,16.469
		c-84.619,0-153.824,65.831-159.298,149.063c-0.135,0-0.26-0.02-0.389-0.02c-47.038,0-85.168,38.13-85.168,85.164
		c0,47.037,38.13,85.168,85.168,85.168h319.375c58.795,0,106.457-47.662,106.457-106.457
		C511.5,170.587,463.838,122.925,405.043,122.925z M405.043,305.184H85.668c-30.056,0-54.508-24.452-54.508-54.508
		c0-29.737,23.938-53.985,53.555-54.494l0.16,0.01h1.183h28.709l1.886-28.649c4.441-67.523,60.971-120.414,128.703-120.414
		c54.729,0,103.662,34.702,121.772,86.351l7.854,22.401l23.653-1.996c2.4-0.2,4.496-0.299,6.407-0.299
		c41.794,0,75.797,34.003,75.797,75.802C480.84,271.181,446.837,305.184,405.043,305.184z M335.205,208.094
		c0,8.468-6.861,15.33-15.33,15.33c-23.14,0-48.545,25.405-48.545,48.545c0,8.469-6.861,15.33-15.33,15.33s-15.33-6.861-15.33-15.33
		c0-39.972,39.233-79.205,79.205-79.205C328.344,192.764,335.205,199.625,335.205,208.094z M230.45,469.981
		c0,14.112-11.438,25.55-25.55,25.55s-25.55-11.438-25.55-25.55s11.438-51.101,25.55-51.101S230.45,455.869,230.45,469.981z
		 M332.65,418.881c0,14.112-11.438,25.551-25.551,25.551s-25.55-11.438-25.55-25.551s11.438-51.1,25.55-51.1
		S332.65,404.769,332.65,418.881z"></path></g></svg>