<?xml version="1.0" encoding="iso-8859-1"?>
<!DOCTYPE svg PUBLIC "-//W3C//DTD SVG 1.1//EN" "http://www.w3.org/Graphics/SVG/1.1/DTD/svg11.dtd">
<svg 
 version="1.1" xmlns="http://www.w3.org/2000/svg" xmlns:xlink="http://www.w3.org/1999/xlink" x="0px" y="0px" width="512px"
	 height="512px" viewBox="0 0 512 512" enable-background="new 0 0 512 512" xml:space="preserve"
><g fill="#383838" id="1b1c9b208ed950244c86edd4d203c502"><g></g><path display="inline" d="M383.75,42.156h-255.5C57.809,42.156,0.5,99.465,0.5,169.906v172.188
		c0,70.441,57.309,127.75,127.75,127.75h255.5c70.441,0,127.75-57.309,127.75-127.75V169.906
		C511.5,99.465,454.191,42.156,383.75,42.156z M383.75,106.031c5.564,0,10.941,0.794,16.098,2.147
		c-2.15,1.598-4.233,3.375-6.209,5.351l-138.08,138.079L117.92,113.97c-2.073-2.073-4.259-3.94-6.521-5.595
		c5.381-1.485,11.014-2.344,16.851-2.344H383.75z M447.625,342.094c0,35.132-28.744,63.875-63.875,63.875h-255.5
		c-35.131,0-63.875-28.743-63.875-63.875V169.906c0-6.119,0.921-12.026,2.549-17.641c1.715,2.383,3.651,4.691,5.83,6.87
		l150.551,150.551c14.784,14.783,35.241,19.033,48.304,10.951c5.863-2.523,11.587-6.335,16.645-11.392l150.551-150.551
		c2.283-2.283,4.292-4.712,6.067-7.22c1.775,5.843,2.753,12.026,2.753,18.431V342.094z"></path></g></svg>