<?xml version="1.0" encoding="iso-8859-1"?>
<!DOCTYPE svg PUBLIC "-//W3C//DTD SVG 1.1//EN" "http://www.w3.org/Graphics/SVG/1.1/DTD/svg11.dtd">
<svg 
 version="1.1" xmlns="http://www.w3.org/2000/svg" xmlns:xlink="http://www.w3.org/1999/xlink" x="0px" y="0px" width="512px"
	 height="512px" viewBox="0 0 512 512" enable-background="new 0 0 512 512" xml:space="preserve"
><g fill="#ffffff" id="b75708d097f2188dff6617b0f00c9e15"><g></g><path display="inline" d="M385.674,67.07l-192.585,94.845c0,0-26.758,9.653-59.869-0.871c-4.66-2.106-13.536-7.5-12.544-17.766
		c1.415-14.709,18.832-22.387,18.832-22.387l-0.423,0.117L337.434,22v-0.282c0-13.295-7.183-21.217-17.421-21.217
		c-3.634,0-7.657,0.998-11.88,3.111L157.256,79.046v-0.124l-38.394,19.2l0.582-0.162c0,0-24.635,12.355-24.635,24.184V463.5
		c0,0-1.132,31.617,33.868,43.425c32.213,10.865,64.412-1.032,64.412-1.032l6.729-3.365l185.856-91.477
		c17.335-8.669,31.521-31.621,31.521-51.003V86.549C417.195,67.166,403.009,58.4,385.674,67.07z M166.909,439.271
		c-10.028,0.354-21.496-0.592-33.018-4.478c-6.659-2.247-11.945-5.231-16.247-8.556v-39.629l4.309,3.331
		c4.12,3.184,8.762,5.62,14.193,7.454c8.215,2.771,17.27,4.175,26.902,4.175c1.222,0,2.43-0.023,3.614-0.065l0.248-0.01V439.271z
		 M166.909,290.264c-10.028,0.354-21.496-0.592-33.018-4.478c-6.659-2.247-11.945-5.231-16.247-8.556v-66.958
		c4.302,3.325,9.588,6.308,16.247,8.556c11.522,3.885,22.99,4.832,33.018,4.478V290.264z"></path></g></svg>