<?xml version="1.0" encoding="iso-8859-1"?>
<!DOCTYPE svg PUBLIC "-//W3C//DTD SVG 1.1//EN" "http://www.w3.org/Graphics/SVG/1.1/DTD/svg11.dtd">
<svg 
 version="1.1" xmlns="http://www.w3.org/2000/svg" xmlns:xlink="http://www.w3.org/1999/xlink" x="0px" y="0px" width="512px"
	 height="512px" viewBox="0 0 512 512" style="enable-background:new 0 0 512 512;" xml:space="preserve"
><g fill="#ffffff" id="afcae5a789ccd549f9c6e2a2f8105d88"><g></g><path style="display: inline;  clip-rule: evenodd;" d="M511.5,253.476c0,0-1.692,5.43-10.293,8.964
		c-14.218,5.838-38.292,10.986-38.292,10.986S392.013,387.72,296.961,403.848C188.158,422.304,69.906,340.23,69.906,340.23
		s129.784,66.578,213.371,52.672c77.959-12.966,158.817-134.22,158.817-134.22s-49.687-56.681-109.207-92.245
		c23.396,21.492,38.067,52.332,38.067,86.605c0,64.923-52.634,117.554-117.558,117.554c-64.922,0-117.557-52.631-117.557-117.554
		c0-47.016,27.608-87.562,67.485-106.366c-3.327,0.267-6.613,0.558-9.839,0.873C103.411,176.376,30.866,263.016,30.866,263.016
		s-13.989,7.435-21.737,3.675C1.702,263.081,0.5,248.269,0.5,248.269s18.177-3.202,30.224-17.425
		c18.967-22.389,43.756-45.76,73.494-65.555c-47.653,14.955-70.75,32.662-70.75,32.662s85.042-86.93,220.273-92.294
		c119.724-4.749,220.452,73.207,220.452,73.207s-28.491-8.051-70.155-16.318C467.927,202.508,511.5,253.476,511.5,253.476z"></path></g></svg>