<?xml version="1.0" encoding="iso-8859-1"?>
<!DOCTYPE svg PUBLIC "-//W3C//DTD SVG 1.1//EN" "http://www.w3.org/Graphics/SVG/1.1/DTD/svg11.dtd">
<svg 
 version="1.1" xmlns="http://www.w3.org/2000/svg" xmlns:xlink="http://www.w3.org/1999/xlink" x="0px" y="0px" width="512px"
	 height="512px" viewBox="0 0 512 512" style="enable-background:new 0 0 512 512;" xml:space="preserve"
><g fill="#383838" id="afcae5a789ccd549f9c6e2a2f80c90bc"><g></g><path style="display: inline;  clip-rule: evenodd;" d="M349.076,0.5c-87.392,0-158.23,70.845-158.23,158.231
		c0,26.992,6.773,52.397,18.688,74.632L6.547,440.76l-1.857,56.776l9.306,9.31l51.19,4.654l8.377-8.377l-2.789-32.578l7.444-7.444
		l30.718,0.925l12.099-8.377l-2.789-31.643l7.445-7.449l31.646-0.928l5.584-4.654l2.793-35.37l7.444-5.584l33.509-0.932
		l71.559-68.877c21.321,10.695,45.375,16.754,70.851,16.754c87.39,0,158.234-70.84,158.234-158.235
		C507.311,71.345,436.466,0.5,349.076,0.5z M378.546,167.91c-25.212,0-45.652-21.544-45.652-48.119
		c0-26.579,20.44-48.122,45.652-48.122c25.214,0,45.653,21.543,45.653,48.122C424.199,146.366,403.76,167.91,378.546,167.91z"></path></g></svg>