<?xml version="1.0" encoding="iso-8859-1"?>
<!DOCTYPE svg PUBLIC "-//W3C//DTD SVG 1.1//EN" "http://www.w3.org/Graphics/SVG/1.1/DTD/svg11.dtd">
<svg 
 version="1.1" xmlns="http://www.w3.org/2000/svg" xmlns:xlink="http://www.w3.org/1999/xlink" x="0px" y="0px" width="512px"
	 height="512px" viewBox="0 0 512 512" enable-background="new 0 0 512 512" xml:space="preserve"
><g fill="#383838" id="e6c6b53d3c8160b22dad35a0f70a2850"><g></g><path d="M158.484,207.744c-57.549-65.547-66.11-154.033-17.506-202.632c6.145-6.15,16.118-6.15,22.262,0
			c6.15,6.147,6.15,16.115,0,22.263c-36.32,36.322-28.143,104.501,16.861,157.328c-1.804-7.698-2.818-15.774-2.818-24.144
			c0-27.413,10.352-51.951,26.68-68.778c-0.276-3.18-0.44-6.5-0.44-9.939c0-21.737,5.873-39.359,13.12-39.359
			c6.37,0,11.674,13.625,12.869,31.685c8.287-3.462,17.179-5.445,26.49-5.445s18.203,1.983,26.49,5.445
			c1.194-18.06,6.498-31.685,12.869-31.685c7.246,0,13.119,17.622,13.119,39.359c0,3.439-0.164,6.76-0.44,9.939
			c16.327,16.828,26.68,41.366,26.68,68.778c0,8.369-1.015,16.446-2.818,24.144c45.006-52.827,53.186-121.006,16.86-157.328
			c-6.149-6.147-6.149-16.115,0-22.263c6.15-6.15,16.113-6.15,22.263,0c48.604,48.599,40.046,137.085-17.507,202.632
			c-22.227-20.494-55.087-31.246-97.516-31.246S180.71,187.25,158.484,207.744z M136.739,237.766
			c5.053-10.711,11.682-20.089,19.854-28.069c-70.005-11.223-112.865-69.77-121.328-110.72c-1.758-8.512-10.081-13.978-18.606-12.23
			c-8.515,1.761-13.991,10.091-12.23,18.606C15.716,159.955,64.722,219.859,136.739,237.766z M375.261,237.761
			c72.02-17.896,121.019-77.806,132.309-132.409c1.763-8.515-3.716-16.845-12.228-18.606c-8.533-1.765-16.846,3.716-18.604,12.23
			c-8.467,40.95-51.326,99.497-121.331,110.72C363.576,217.676,370.207,227.05,375.261,237.761z M34.07,355.371
			c20.41-43.008,56.755-67.525,91.979-78.503c1.501-12.909,4.489-24.655,8.945-35.182C84.755,251.869,32.846,284.505,5.622,341.872
			c-3.726,7.856-0.382,17.245,7.475,20.971c2.181,1.035,4.477,1.527,6.739,1.527C25.727,364.37,31.377,361.05,34.07,355.371z
			 M387.135,295.107c0.005,0.564,0.062,1.087,0.062,1.65c0,2.706-0.139,5.412-0.384,8.118c-0.231-3.777-0.61-7.391-1.062-10.921
			c-0.066-0.057-0.133-0.118-0.205-0.175c-0.896-6.462-2.152-12.525-3.762-18.193c0.154,0.041,0.308,0.098,0.462,0.139
			C366.415,216.61,314.27,198.361,256,198.361s-110.42,18.25-126.246,77.375c0.154-0.046,0.308-0.102,0.461-0.143
			c-1.606,5.668-2.865,11.73-3.762,18.183c-0.069,0.057-0.136,0.118-0.208,0.174c-0.448,3.536-0.83,7.149-1.058,10.927
			c-0.246-2.706-0.384-5.412-0.384-8.118c0-0.568,0.059-1.092,0.064-1.655C70.69,338.854,28.443,410.109,30.293,496.095
			c0.185,8.579,7.198,15.405,15.733,15.405c0.115,0,0.23,0,0.346-0.005c8.694-0.185,15.59-7.385,15.403-16.077
			c-1.448-67.289,28.025-121.869,65.206-159.178C141.977,402.038,231.97,462.312,256,462.312s114.018-60.269,129.019-126.071
			c37.181,37.309,66.653,91.889,65.209,159.178c-0.19,8.692,6.708,15.893,15.399,16.077c0.113,0.005,0.231,0.005,0.344,0.005
			c8.538,0,15.549-6.826,15.733-15.405C483.554,410.109,441.315,338.858,387.135,295.107z M377.008,241.687
			c4.454,10.526,7.441,22.272,8.943,35.177c35.223,10.978,71.563,35.495,91.98,78.508c2.691,5.679,8.344,8.999,14.232,8.999
			c2.26,0,4.561-0.492,6.739-1.527c7.856-3.726,11.203-13.114,7.472-20.971C479.152,284.505,427.242,251.874,377.008,241.687z"></path></g></svg>