<?xml version="1.0" encoding="iso-8859-1"?>
<!DOCTYPE svg PUBLIC "-//W3C//DTD SVG 1.1//EN" "http://www.w3.org/Graphics/SVG/1.1/DTD/svg11.dtd">
<svg 
 version="1.1" xmlns="http://www.w3.org/2000/svg" xmlns:xlink="http://www.w3.org/1999/xlink" x="0px" y="0px" width="512px"
	 height="512px" viewBox="0 0 512 512" style="enable-background:new 0 0 512 512;" xml:space="preserve"
><g fill="#ffffff" id="afcae5a789ccd549f9c6e2a2f819c3e7"><g></g><path style="display: inline; " d="M229.104,433.739c-6.683,0-12.367-3.42-13.313-8.037L170.06,203.006l-35.778,74.664
		c-1.827,3.819-6.969,6.396-12.758,6.396H13.952c-7.434,0-13.452-4.191-13.452-9.359c0-5.164,6.019-9.352,13.452-9.352h97.882
		l50.727-105.86c1.97-4.118,7.793-6.741,13.964-6.359c6.209,0.391,11.221,3.699,12.103,7.998l38.811,188.982L269.53,86.582
		c0.746-4.682,6.383-8.243,13.156-8.319c6.83-0.084,12.567,3.365,13.521,8.032l44.079,214.651l10.25-28.509
		c1.492-4.166,6.873-7.082,13.039-7.082h134.48c7.425,0,13.443,4.188,13.443,9.352c0,5.168-6.019,9.359-13.443,9.359H374.082
		l-24.353,67.75c-1.563,4.34-7.395,7.304-13.738,7.069c-6.422-0.226-11.707-3.585-12.619-8.02l-38.811-188.982L242.47,425.416
		c-0.746,4.687-6.383,8.245-13.156,8.318C229.244,433.739,229.174,433.739,229.104,433.739z"></path></g></svg>