<?xml version="1.0" encoding="iso-8859-1"?>
<!DOCTYPE svg PUBLIC "-//W3C//DTD SVG 1.1//EN" "http://www.w3.org/Graphics/SVG/1.1/DTD/svg11.dtd">
<svg 
 version="1.1" xmlns="http://www.w3.org/2000/svg" xmlns:xlink="http://www.w3.org/1999/xlink" x="0px" y="0px" width="512px"
	 height="512px" viewBox="0 0 512 512" style="enable-background:new 0 0 512 512;" xml:space="preserve"
><g fill="#383838" id="afcae5a789ccd549f9c6e2a2f81342b7"><g></g><path style="display: inline; " d="M511.5,149.61v255.362h-63.875v-63.875H64.375v63.875H0.5V107.027h63.875v170.196
		h383.25V149.61H511.5z M138.896,255.931c29.396,0,53.229-23.832,53.229-53.229c0-29.396-23.833-53.229-53.229-53.229
		c-29.397,0-53.229,23.833-53.229,53.229C85.667,232.099,109.499,255.931,138.896,255.931z M426.333,149.473
		c0,0-42.583-21.154-106.458-21.292c-63.875-0.137-106.458,21.292-106.458,21.292v106.458h212.917V149.473z"></path></g></svg>