<?xml version="1.0" encoding="iso-8859-1"?>
<!DOCTYPE svg PUBLIC "-//W3C//DTD SVG 1.1//EN" "http://www.w3.org/Graphics/SVG/1.1/DTD/svg11.dtd">
<svg 
 version="1.1" xmlns="http://www.w3.org/2000/svg" xmlns:xlink="http://www.w3.org/1999/xlink" x="0px" y="0px" width="512px"
	 height="512px" viewBox="0 0 512 512" enable-background="new 0 0 512 512" xml:space="preserve"
><g fill="#ffffff" id="1b1c9b208ed950244c86edd4d202d80b"><g></g><path display="inline" d="M458.649,200.263h-405.3c-37.152,0-44.196-19.461-15.656-43.246l61.077-50.898V20.155
		c0-10.81,8.844-19.654,19.654-19.654h39.308c10.81,0,19.654,8.844,19.654,19.654v20.448l26.721-22.268
		c28.542-23.78,75.249-23.78,103.789,0l166.412,138.683C502.848,180.802,495.804,200.263,458.649,200.263z M59.462,452.538
		c0,32.429,26.533,58.962,58.961,58.962h78.615V354.27h117.923V511.5h78.615c32.429,0,58.961-26.533,58.961-58.962V236.347H59.462
		V452.538z"></path></g></svg>