<?xml version="1.0" encoding="iso-8859-1"?>
<!DOCTYPE svg PUBLIC "-//W3C//DTD SVG 1.1//EN" "http://www.w3.org/Graphics/SVG/1.1/DTD/svg11.dtd">
<svg 
 version="1.1" xmlns="http://www.w3.org/2000/svg" xmlns:xlink="http://www.w3.org/1999/xlink" x="0px" y="0px" width="512px"
	 height="512px" viewBox="0 0 512 512" style="enable-background:new 0 0 512 512;" xml:space="preserve"
><g fill="#383838" id="afcae5a789ccd549f9c6e2a2f80c17a5"><g></g><path style="display: inline;" d="M505.783,448.121l-0.084,0.042c0.042,0.041-44.808,44.315-44.808,44.315
		c-20.606,21.375-140.371,62.046-326.047-127.932C-41.395,184.265-0.288,74.146,18.28,51.025L63.068,6.237
		c7.61-7.519,19.878-7.734,27.571-0.054c0.042,0.054,99.681,99.348,99.681,99.348v0.137c7.298,7.319,8.046,19.545,0,27.612v0.083
		c0,0.042-44.746,44.58-44.746,44.58c-18.132,18.14-0.562,43.902,19.295,68.445c28.319,35.044,61.002,66.067,89.321,89.146
		c42.876,34.903,65.208,50.303,82.569,32.99l44.476-44.703c7.61-7.516,19.878-7.694,27.55-0.042
		c0.042,0.042,96.915,96.549,96.915,96.549v0.137C513.02,427.827,513.809,440.053,505.783,448.121z"></path></g></svg>