<?xml version="1.0" encoding="iso-8859-1"?>
<!DOCTYPE svg PUBLIC "-//W3C//DTD SVG 1.1//EN" "http://www.w3.org/Graphics/SVG/1.1/DTD/svg11.dtd">
<svg 
 version="1.1" xmlns="http://www.w3.org/2000/svg" xmlns:xlink="http://www.w3.org/1999/xlink" x="0px" y="0px" width="512px"
	 height="512px" viewBox="0 0 512 512" style="enable-background:new 0 0 512 512;" xml:space="preserve"
><g fill="#383838" id="afcae5a789ccd549f9c6e2a2f81974d3"><g></g><path style="display: inline;" d="M501.202,137.19c-10.188-10.192-23.979-13.203-31.788-7.29l-42.047-42.047
		c-6.741-6.737-15.008-9.494-18.376-6.124c-3.369,3.369-0.611,11.636,6.125,18.375l41.003,41.003
		c-5.152,3.605-10.475,6.396-15.89,8.61l-25.113-25.113c-6.736-6.737-15.008-9.494-18.376-6.125
		c-3.369,3.368-0.611,11.638,6.125,18.375l18.239,18.239c-19.574,3.223-39.76,0.528-58.498-2.876l-2.391-0.435l-0.437-2.393
		c-6.263-34.52-10.317-73.98,21.108-105.408c7.477-7.473,4.749-22.36-6.08-33.185c-10.828-10.825-25.716-13.555-33.185-6.082
		c-39.248,39.246-37.256,86.999-29.259,132.75l0.86,4.928l-4.928-0.861c-45.752-7.995-93.509-9.985-132.757,29.261
		c-39.239,39.242-37.252,86.996-29.251,132.748l0.856,4.932l-4.923-0.864c-45.761-7.993-93.509-9.985-132.753,29.259
		c-3.077,3.077-6.033,6.404-8.97,10.118l39.415,39.418c2.69-3.659,5.597-7.044,8.824-10.271
		c31.422-31.422,70.886-27.371,105.401-21.104l2.396,0.437l0.433,2.396c2.994,16.476,5.431,34.075,3.792,51.387l-27.396-27.393
		c-6.736-6.736-15.004-9.497-18.372-6.129s-0.611,11.644,6.126,18.381l35.518,35.514c-1.863,5.729-4.371,11.36-7.656,16.846
		l-27.861-27.862c-6.737-6.741-15.009-9.493-18.377-6.125s-0.611,11.636,6.13,18.372l29.579,29.584
		c-0.869,0.939-1.659,1.896-2.591,2.823c-3.219,3.223-6.604,6.126-10.267,8.82l39.422,39.423c3.706-2.937,7.037-5.889,10.118-8.975
		c39.24-39.235,37.252-86.987,29.251-132.748l-0.856-4.923l4.924,0.856c45.76,8.001,93.508,9.988,132.752-29.256
		c39.244-39.243,37.256-87,29.264-132.756l-0.865-4.928l4.932,0.863c45.752,7.997,93.504,9.987,132.748-29.259
		C514.759,162.902,512.03,148.015,501.202,137.19z M301.935,297.187c-31.431,31.431-70.887,27.376-105.402,21.108l-2.395-0.437
		l-0.433-2.391c-4.051-22.311-7.119-46.676-0.333-69.614l37.996,38c6.737,6.737,15.009,9.49,18.377,6.121
		c3.368-3.368,0.611-11.635-6.13-18.372l-43.007-43.007c2.761-4.882,6.195-9.631,10.263-14.239l57.246,57.246
		c6.737,6.737,15.004,9.49,18.372,6.121c3.369-3.368,0.616-11.635-6.121-18.372l-56.855-56.855
		c4.911-3.792,9.969-6.907,15.146-9.353l41.71,41.706c6.737,6.741,15.004,9.498,18.372,6.13c3.369-3.369,0.615-11.64-6.121-18.376
		l-35.622-35.62c21.034-4.562,42.975-1.709,63.227,1.965l2.391,0.435l0.437,2.395C329.313,226.297,333.364,265.757,301.935,297.187z
		"></path></g></svg>