<?xml version="1.0" encoding="iso-8859-1"?>
<!DOCTYPE svg PUBLIC "-//W3C//DTD SVG 1.1//EN" "http://www.w3.org/Graphics/SVG/1.1/DTD/svg11.dtd">
<svg 
 version="1.1" xmlns="http://www.w3.org/2000/svg" xmlns:xlink="http://www.w3.org/1999/xlink" x="0px" y="0px" width="512px"
	 height="512px" viewBox="0 0 512 512" style="enable-background:new 0 0 512 512;" xml:space="preserve"
><g id="afcae5a789ccd549f9c6e2a2f813eb62"><g></g><path style="display: inline; fill-rule: evenodd; clip-rule: evenodd;" d="M269.188,137.577L7.375,441.071
		c0,0,0.506,10.076,6.895,20.322c2.295,3.688,5.612,7.419,8.72,10.536L5.279,489.641c-4.99,4.988-4.979,13.139,0,18.122
		s13.139,4.983,18.117,0l17.738-17.742c2.639,2.444,5.539,4.87,8.431,6.668c10.229,6.375,20.311,6.891,20.311,6.891l303.499-261.825
		c0,0,30.605-4.889,58.942-16.762L285.968,78.648C274.086,106.972,269.188,137.577,269.188,137.577z M280.547,203.224
		c9.967-9.967,24.234-12,31.707-4.527c7.482,7.473,5.439,21.741-4.527,31.708l-18.117,18.117
		c-9.967,9.966-24.234,12.004-31.707,4.527c-7.472-7.473-5.439-21.741,4.527-31.703L280.547,203.224z M464.53,206.016
		L304.935,46.426c10.383-12.971,20.431-21.185,20.431-21.185s28.482-27.908,75.74-24.443c46.184,3.389,74.187,34.861,74.187,34.861
		s31.473,28.003,34.87,74.191c3.461,47.263-24.451,75.74-24.451,75.74S477.506,195.638,464.53,206.016z"></path></g></svg>